<svg xmlns="http://www.w3.org/2000/svg" viewBox="0 0 39.79 39.79"><title>Asset 12</title><g id="Layer_2" data-name="Layer 2"><g id="Layer_1-2" data-name="Layer 1"><path d="M22.07,30.93c.73,1.56,1.46,3.1,2.19,4.64a1.18,1.18,0,0,1,.07.2,18.38,18.38,0,1,1,5-32.18,18.26,18.26,0,0,1,6.45,20.77l-4.83-2.29a12.85,12.85,0,0,0-1-9.8A12.76,12.76,0,0,0,24,6.62a13,13,0,1,0-1.9,24.31Z"/><path d="M27.11,20.26l-3-1.42-4.66-2.2a2.05,2.05,0,0,0-2.82,2.79c1.15,2.43,2.3,4.85,3.44,7.28.07.13.12.26.18.4A8.8,8.8,0,0,1,11,23.42,9,9,0,0,1,23.18,10.81,8.83,8.83,0,0,1,27.11,20.26Z"/><path d="M22.69,22.7l17.1,8.1c-.4.11-.7.2-1,.27L34,32.27A2.15,2.15,0,0,0,32.25,34q-.66,2.7-1.34,5.39l-.12.41Z"/></g></g></svg>