<svg xmlns="http://www.w3.org/2000/svg" viewBox="0 0 36.45 40.54"><title>Asset 11</title><g id="Layer_2" data-name="Layer 2"><g id="Layer_1-2" data-name="Layer 1"><path d="M29.18,25.2c0-4.28,0-8.57,0-12.85a2.18,2.18,0,0,1,2.43-2.43h2.48a2.16,2.16,0,0,1,2.36,2.37V38.16a2.16,2.16,0,0,1-2,2.35c-.55.05-1.11,0-1.67,0h-1.4a2.16,2.16,0,0,1-2.24-2.26C29.17,33.91,29.18,29.56,29.18,25.2Z"/><path d="M19.32,28.36V18.59a2.2,2.2,0,0,1,2.43-2.44h2.53a2.19,2.19,0,0,1,2.34,2.36V38.18a2.2,2.2,0,0,1-2.39,2.35H21.75a2.2,2.2,0,0,1-2.43-2.4Z"/><path d="M16.77,31.07v7a2.2,2.2,0,0,1-2.42,2.41H11.82a2.18,2.18,0,0,1-2.34-2.35c0-2.36,0-4.73,0-7.09v-7A2.22,2.22,0,0,1,12,21.58h2.35A2.2,2.2,0,0,1,16.77,24Z"/><path d="M7.28,33.77V38A2.17,2.17,0,0,1,5,40.32H2.28A2.15,2.15,0,0,1,0,38.05q0-4.29,0-8.58a2.13,2.13,0,0,1,2.28-2.25H5.05a2.14,2.14,0,0,1,2.23,2.26C7.29,30.91,7.28,32.34,7.28,33.77Z"/><path d="M28.24,1.59l-3.78.53-.31,0a.74.74,0,0,1-.83-.65A.72.72,0,0,1,24,.73l2.5-.37L28.85,0a1.48,1.48,0,0,1,1.79,1.3c.24,1.59.47,3.18.69,4.78.08.56-.15.93-.59,1S30,6.86,29.9,6.3c-.16-1.09-.31-2.18-.47-3.27,0-.12-.06-.25-.1-.43-.43.54-.81,1-1.22,1.51A35.09,35.09,0,0,1,6.49,16.44L6,16.52a.73.73,0,0,1-.84-.58.72.72,0,0,1,.63-.84c.94-.18,1.9-.32,2.83-.55A33.68,33.68,0,0,0,28,1.94Z"/></g></g></svg>