<svg xmlns="http://www.w3.org/2000/svg" viewBox="0 0 44.36 44.35"><title>Asset 13</title><g id="Layer_2" data-name="Layer 2"><g id="Layer_1-2" data-name="Layer 1"><path d="M39.86,22.2c0,4.69,0,9.38,0,14.08a3.4,3.4,0,0,1-2.73,3.51,4.06,4.06,0,0,1-.85.06H8.06A3.38,3.38,0,0,1,4.5,36.31q0-14.13,0-28.26A3.38,3.38,0,0,1,8.06,4.5H36.27a3.39,3.39,0,0,1,3.59,3.61C39.87,12.81,39.86,17.5,39.86,22.2ZM22.18,38.94h14a2.5,2.5,0,0,0,2.72-2.7V8.12a2.5,2.5,0,0,0-2.7-2.71H8.11a2.51,2.51,0,0,0-2.7,2.72V36.2a2.51,2.51,0,0,0,2.73,2.74Z"/><path d="M34.12,1.78V.52c0-.3.13-.51.44-.52s.47.22.48.53V3c0,.31-.14.54-.47.54s-.46-.24-.45-.55Z"/><path d="M1.76,10.24H.5c-.31,0-.51-.16-.5-.46a.45.45,0,0,1,.51-.46H3c.3,0,.51.13.52.45s-.21.47-.53.47Z"/><path d="M42.58,10.24H41.31c-.3,0-.5-.14-.5-.45a.43.43,0,0,1,.49-.47h2.57a.45.45,0,0,1,.49.48c0,.3-.22.44-.52.44Z"/><path d="M10.24,1.79V3c0,.32-.12.54-.46.54A.45.45,0,0,1,9.32,3V.52A.46.46,0,0,1,9.77,0c.33,0,.47.21.47.53Z"/><path d="M1.79,35H.53C.21,35,0,34.88,0,34.55s.22-.44.52-.44H3c.3,0,.5.14.51.45a.45.45,0,0,1-.49.47Z"/><path d="M42.59,35H41.33c-.32,0-.53-.16-.52-.49s.23-.43.52-.43h2.48c.32,0,.55.13.54.46s-.23.46-.55.46Z"/><path d="M10.24,42.56v1.26c0,.3-.13.52-.43.53s-.49-.21-.49-.52V41.3a.44.44,0,0,1,.46-.5.44.44,0,0,1,.46.5Z"/><path d="M35,42.61v1.21c0,.32-.17.54-.49.53s-.43-.23-.43-.53V41.3c0-.3.14-.5.45-.5a.44.44,0,0,1,.46.5C35,41.74,35,42.17,35,42.61Z"/><path d="M25.11,1.79c0,.42,0,.84,0,1.26a.44.44,0,0,1-.46.5.44.44,0,0,1-.46-.5c0-.85,0-1.69,0-2.53,0-.31.16-.53.49-.52s.43.23.43.53Z"/><path d="M20.17,1.81c0,.41,0,.81,0,1.22s-.16.53-.49.52-.44-.23-.44-.53V.55c0-.32.13-.55.46-.55s.47.24.47.55Z"/><path d="M15.2,1.79c0,.39,0,.78,0,1.17s-.11.59-.47.58-.45-.24-.45-.55V.54c0-.32.14-.55.47-.54s.45.25.45.56S15.2,1.38,15.2,1.79Z"/><path d="M1.8,14.29a8.81,8.81,0,0,1,1.26,0,.67.67,0,0,1,.47.41c.07.3-.16.48-.46.48q-1.29,0-2.58,0C.18,15.2,0,15,0,14.73a.66.66,0,0,1,.47-.42A9.52,9.52,0,0,1,1.8,14.29Z"/><path d="M42.56,14.29h1.27c.3,0,.52.13.52.44s-.21.47-.53.47H41.33c-.3,0-.51-.13-.52-.44s.21-.48.53-.47Z"/><path d="M30.07,1.82V3a.44.44,0,0,1-.46.5c-.31,0-.46-.19-.46-.49V.51c0-.3.15-.51.46-.51a.44.44,0,0,1,.46.5Z"/><path d="M1.73,20.17c-.37,0-.75,0-1.12,0S0,20.07,0,19.71s.25-.47.58-.47H3c.31,0,.54.12.54.47s-.25.45-.55.45Z"/><path d="M42.56,20.17c-.39,0-.78,0-1.17,0s-.58-.11-.58-.48.24-.45.55-.45h2.43c.31,0,.56.11.57.44s-.25.49-.58.49S43,20.16,42.56,20.17Z"/><path d="M1.77,25.11H.56C.25,25.11,0,25,0,24.66s.23-.47.54-.47c.82,0,1.65,0,2.48,0,.31,0,.53.14.53.47a.45.45,0,0,1-.51.45Z"/><path d="M42.59,24.18h1.22c.31,0,.54.13.55.46s-.24.46-.55.46H41.33c-.29,0-.51-.13-.52-.44s.21-.48.52-.48Z"/><path d="M1.76,30.06H.53c-.32,0-.54-.14-.53-.47s.22-.44.52-.44H3c.32,0,.53.13.52.47s-.21.44-.51.44Z"/><path d="M20.17,42.57v1.17c0,.32-.1.59-.45.61s-.48-.25-.48-.58V41.34c0-.31.13-.54.47-.54s.46.25.46.55Z"/><path d="M25.11,42.59v1.22c0,.31-.13.55-.46.54s-.46-.25-.46-.56V41.36c0-.31.11-.55.45-.56s.48.25.47.58Z"/><path d="M15.2,42.56v1.26c0,.31-.14.52-.44.53s-.47-.21-.47-.54V41.32c0-.3.13-.51.44-.51s.48.2.47.52Z"/><path d="M42.57,30.06H41.3c-.31,0-.53-.17-.47-.46a.65.65,0,0,1,.45-.43c.86,0,1.72,0,2.58,0a.43.43,0,0,1,.49.47c0,.3-.21.44-.51.44Z"/><path d="M30.07,42.6c0,.4,0,.81,0,1.22s-.14.52-.44.53-.48-.21-.48-.53V41.33c0-.3.13-.51.44-.52s.48.19.48.52Z"/><path d="M32,22.19v9c0,.69-.1.79-.77.79h-18c-.68,0-.78-.1-.78-.79v-18c0-.71.1-.8.82-.8H31.14c.74,0,.82.09.82.84Zm-13.79,0c0,1.1,0,2.2,0,3.3,0,.6.09.7.67.7h6.7c.54,0,.65-.11.65-.63V18.8c0-.53-.11-.63-.65-.63-2.24,0-4.47,0-6.7,0-.57,0-.67.1-.67.65C18.16,19.94,18.17,21.06,18.17,22.18Z"/><path d="M11.77,9.81a2,2,0,0,1-2,2,2,2,0,0,1-2-2,2,2,0,0,1,2-2A2,2,0,0,1,11.77,9.81Z"/><path d="M25.24,25.25H19.12V19.12h6.12Z"/></g></g></svg>