<svg xmlns="http://www.w3.org/2000/svg" viewBox="0 0 44.31 44.22"><title>Asset 14</title><g id="Layer_2" data-name="Layer 2"><g id="Layer_1-2" data-name="Layer 1"><path d="M36.68,12a5.56,5.56,0,0,1-.37.66c-.84,1.15-1.68,2.31-2.53,3.44a.55.55,0,0,0-.07.68,2.81,2.81,0,0,1,.36.86c.09.39.33.5.69.55,1.39.19,2.79.41,4.18.63a.78.78,0,0,1,.79.89c0,1.6,0,3.21,0,4.81,0,.55-.23.8-.79.89-1.39.22-2.79.43-4.19.63-.35.05-.61.15-.67.55a1.23,1.23,0,0,1-.17.41,1.17,1.17,0,0,0,.17,1.6c.8,1,1.51,2,2.25,3,.39.53.36.81-.1,1.28L33,36.15c-.49.48-.77.5-1.32.09-1.14-.84-2.28-1.67-3.4-2.52a.55.55,0,0,0-.72-.06,1.46,1.46,0,0,1-.53.22c-.71.12-.91.57-1,1.23-.13,1.26-.36,2.5-.54,3.75a.8.8,0,0,1-.92.8H19.76c-.58,0-.82-.23-.91-.82-.21-1.42-.43-2.84-.63-4.27a.51.51,0,0,0-.41-.49,2.74,2.74,0,0,1-.75-.3c-.48-.33-.83-.18-1.25.15-1,.8-2.09,1.56-3.15,2.34a.8.8,0,0,1-1.28-.1L8.09,32.89c-.49-.49-.51-.76-.09-1.32.84-1.14,1.69-2.29,2.55-3.43a.53.53,0,0,0,.07-.64,5.34,5.34,0,0,1-.42-1c-.09-.32-.28-.4-.58-.44L5.3,25.4a.76.76,0,0,1-.72-.82c0-1.65,0-3.3,0-4.94a.74.74,0,0,1,.72-.81c1.42-.22,2.85-.43,4.28-.63.32-.05.56-.12.63-.49a1.27,1.27,0,0,1,.19-.5c.43-.58.23-1-.18-1.55-.79-1-1.49-2-2.23-3-.41-.55-.39-.83.1-1.31,1.1-1.1,2.19-2.19,3.29-3.27.47-.47.75-.5,1.29-.11,1.15.84,2.3,1.68,3.44,2.54a.57.57,0,0,0,.72.08,2.71,2.71,0,0,1,.86-.36c.4-.09.49-.34.54-.69.2-1.41.42-2.81.63-4.22a.77.77,0,0,1,.89-.74q2.38,0,4.77,0c.62,0,.85.22.95.83.21,1.4.43,2.79.63,4.18,0,.32.12.58.5.62a.11.11,0,0,1,.08,0A1.68,1.68,0,0,0,29,10c.83-.73,1.78-1.34,2.68-2,.52-.38.8-.36,1.25.08q1.68,1.67,3.35,3.34A4.2,4.2,0,0,1,36.68,12Zm-14.51.17a9.95,9.95,0,1,0,9.95,9.91A10,10,0,0,0,22.17,12.17Z"/><path d="M41,30.8c.34-1,.75-1.95,1-2.95a20.5,20.5,0,0,0-2.3-16.65L39.63,11a.71.71,0,0,1,.17-1,.69.69,0,0,1,1,.32,26.87,26.87,0,0,1,1.4,2.58,21.75,21.75,0,0,1,.1,18.33l-.15.41.72-.42a.71.71,0,0,1,1,.23.69.69,0,0,1-.26,1c-1,.61-2,1.23-3,1.82a.71.71,0,0,1-1.14-.61c0-1.16-.07-2.32-.08-3.48a.71.71,0,0,1,.69-.77c.42,0,.7.29.72.78,0,.21,0,.43,0,.65Z"/><path d="M2.2,12.52c-.36.2-.6.35-.85.48a.7.7,0,0,1-1-.25.67.67,0,0,1,.25-1c1-.61,2.05-1.21,3.09-1.78a.71.71,0,0,1,1.1.63c0,1.15,0,2.29,0,3.43a.7.7,0,0,1-.72.75c-.43,0-.69-.29-.7-.79a1.19,1.19,0,0,0-.08-.47c-.06.12-.13.24-.18.36A20.49,20.49,0,0,0,4.45,32.84c.1.17.21.33.3.5a.68.68,0,0,1-.25.93.66.66,0,0,1-.94-.19,5.3,5.3,0,0,1-.45-.71A21.92,21.92,0,0,1,2,13Z"/><path d="M31.58,2.05c-.15-.24-.28-.42-.38-.61a.7.7,0,0,1,.2-1,.7.7,0,0,1,1,.21c.65,1,1.29,2,1.91,3.06a.68.68,0,0,1-.56,1.07c-1.18.07-2.35.1-3.52.12a.67.67,0,0,1-.69-.68.69.69,0,0,1,.64-.72A4.67,4.67,0,0,0,31,3.43c-.11-.06-.22-.13-.33-.18A20.66,20.66,0,0,0,11.43,4.43c-.14.08-.27.18-.42.25a.71.71,0,1,1-.72-1.22l.19-.12A22,22,0,0,1,31.07,1.89L31.4,2Z"/><path d="M13.54,40.8a14,14,0,0,0,3.92,1.44,20.65,20.65,0,0,0,15.41-2.43c.16-.1.32-.21.49-.3a.72.72,0,0,1,1,.19.68.68,0,0,1-.24,1,29.47,29.47,0,0,1-2.7,1.47,22,22,0,0,1-18.44,0l-.34-.15.34.62a.73.73,0,0,1-.22,1.05.7.7,0,0,1-1-.31c-.58-1-1.15-1.9-1.71-2.86a.72.72,0,0,1,.65-1.15c1.11,0,2.23,0,3.34,0a.69.69,0,0,1,.75.66.71.71,0,0,1-.67.75A5.61,5.61,0,0,1,13.54,40.8Z"/><path d="M18.94,22.08c0-1.34,0-2.68,0-4,0-.54.13-.62.61-.34l7,4c.44.25.45.43,0,.69l-7.06,4.06c-.44.25-.58.16-.58-.35C18.93,24.81,18.94,23.44,18.94,22.08Z"/></g></g></svg>