<svg xmlns="http://www.w3.org/2000/svg" viewBox="0 0 23.9 44.87"><title>Asset 3</title><g id="Layer_2" data-name="Layer 2"><g id="Layer_1-2" data-name="Layer 1"><path d="M6.35,2.89V.52c0-.48,0-.52.53-.52H17.06c.45,0,.5.05.5.5V2.88h5.69c.54,0,.65.11.65.65V44.16c0,.61-.1.71-.71.71H.63c-.49,0-.63-.13-.63-.61V3.6c0-.6.1-.7.69-.7H6.35Zm-4.64,21V42.5c0,.55.11.66.66.66H21.54c.54,0,.65-.11.65-.66V5.26c0-.55-.11-.66-.65-.66H2.37c-.55,0-.66.11-.66.66Z"/><path d="M9.36,16.29c0-.46,0-.91,0-1.36,0-.08.11-.18.2-.22,1.06-.61,2.13-1.21,3.2-1.81l.15-.1H9.38V11.65h5.17c0,.47,0,.92,0,1.38,0,.07-.12.16-.2.2L11.17,15l-.2.12h3.55v1.15Z"/><path d="M12,17.25a7.71,7.71,0,0,1,1,.17,2.37,2.37,0,0,1,1.66,2.71,2.34,2.34,0,0,1-2.38,2.23,3.91,3.91,0,0,1-1.08-.08,2.36,2.36,0,0,1-1.87-2.79A2.43,2.43,0,0,1,12,17.25Zm0,3.81a7.14,7.14,0,0,0,1.07-.3,1,1,0,0,0,.54-1,1,1,0,0,0-.55-.91,2.61,2.61,0,0,0-2.07,0,1,1,0,0,0-.65,1,1,1,0,0,0,.64,1A7,7,0,0,0,12,21.06Z"/><path d="M9.37,36.11V34.8h4.15V32.21h1v3.9Z"/><path d="M9.37,31.34V30.05h5.15v1.29Z"/><path d="M9.37,24.65V23.36h5.15v1.29Z"/><path d="M13,28.76h-1V25.94h1Z"/></g></g></svg>