<svg xmlns="http://www.w3.org/2000/svg" viewBox="0 0 45.71 50"><title>Asset 9</title><g id="Layer_2" data-name="Layer 2"><g id="Layer_1-2" data-name="Layer 1"><polygon points="22.66 0 35.48 0 22.39 19.86 33.52 19.86 11.85 50 20.28 26.06 11.15 26.06 22.66 0"/><path d="M15.67,8.05l2.49-5.62a22.86,22.86,0,0,0-7.31,41.82l1.58-4.51A18.2,18.2,0,0,1,4.64,24.8c0-.42,0-.84,0-1.25A18.22,18.22,0,0,1,15.67,8.05Z"/><path d="M45.65,23.17a22.29,22.29,0,0,0-1.39-6.4,22,22,0,0,0-1.61-3.4,22.33,22.33,0,0,0-1.26-1.95,23.11,23.11,0,0,0-5.73-5.56L33.11,9.73a19,19,0,0,1,2.11,1.69,18,18,0,0,1,4,5.35c.14.28.27.56.39.85A18.32,18.32,0,0,1,40,31.09,18.24,18.24,0,0,1,22.86,43c-.5,0-1,0-1.48-.06L18.33,47.2a22.53,22.53,0,0,0,4.53.45A22.84,22.84,0,0,0,45.71,24.8C45.71,24.25,45.69,23.71,45.65,23.17Z"/></g></g></svg>