<svg xmlns="http://www.w3.org/2000/svg" viewBox="0 0 50.23 50.09"><title>Asset 7</title><g id="Layer_2" data-name="Layer 2"><g id="Layer_1-2" data-name="Layer 1"><path d="M10,36.69c0-4.29,0-8.57,0-12.86,0-.47.13-.59.58-.59,1.9,0,3.8,0,5.7,0,.39,0,.51.09.51.49q0,12.94,0,25.89c0,.37-.12.46-.47.46-1.94,0-3.87,0-5.81,0C10,50.1,10,50,10,49.56Q10,43.13,10,36.69Z"/><path d="M19.92,39c0-3.45,0-6.9,0-10.35,0-.49.14-.61.62-.6q2.85,0,5.7,0c.36,0,.46.09.46.47q0,10.53,0,21.07c0,.37-.11.46-.46.46-1.94,0-3.87,0-5.81,0-.44,0-.51-.16-.51-.54Q19.93,44.3,19.92,39Z"/><path d="M0,40.64c0-3,0-5.89,0-8.84,0-.45.13-.54.56-.54q2.85,0,5.7,0c.39,0,.54.08.54.52q0,8.88,0,17.78c0,.4-.09.54-.52.53-1.92,0-3.83,0-5.75,0-.46,0-.53-.15-.53-.56C0,46.57,0,43.6,0,40.64Z"/><path d="M34.32,34.12H30.56c-.68,0-.68,0-.68-.6,0-6.38,0-12.76,0-19.15,0-.51.12-.67.66-.66,1.86,0,3.73,0,5.59,0,.42,0,.52.13.52.53q0,7,0,14c0,.36,0,.54-.49.56a2.05,2.05,0,0,0-2.07,1.95A8.25,8.25,0,0,0,34.32,34.12Z"/><path d="M23.94,19.64A3.71,3.71,0,0,1,20.11,15a.55.55,0,0,0-.29-.75q-1.56-1-3.06-2a.42.42,0,0,0-.62.05,3.58,3.58,0,0,1-3.65.76.37.37,0,0,0-.51.18q-2.89,4.55-5.8,9.07c-.2.31,0,.41.15.6a3.54,3.54,0,0,1,.91,3.61A3.57,3.57,0,0,1,4.53,29a3.73,3.73,0,0,1-3.86-1.5,3.77,3.77,0,0,1,0-4.14,3.65,3.65,0,0,1,3.94-1.52.55.55,0,0,0,.74-.29Q8.14,17.16,11,12.76c.21-.33.24-.52,0-.83a3.61,3.61,0,0,1-.33-4.41,3.69,3.69,0,0,1,6.78,2,3.46,3.46,0,0,1-.23,1.28c-.1.25,0,.37.18.51,1.08.7,2.16,1.41,3.23,2.13a.31.31,0,0,0,.48,0,3.63,3.63,0,0,1,4.24-.67.32.32,0,0,0,.45-.1c1.66-2.07,3.31-4.14,5-6.19.18-.22.05-.33-.06-.49a3.68,3.68,0,1,1,6.52-3.05,3.71,3.71,0,0,1-2.37,4.31A3.64,3.64,0,0,1,32,7c-.24-.12-.37-.12-.55.1-1.62,2-3.24,4.06-4.87,6.08a.42.42,0,0,0,0,.62,3.49,3.49,0,0,1,.26,3.84A3.47,3.47,0,0,1,23.94,19.64Zm-.31-1.1A2.57,2.57,0,0,0,26.21,16a2.59,2.59,0,1,0-2.58,2.59ZM1.14,25.38a2.58,2.58,0,1,0,2.64-2.53A2.56,2.56,0,0,0,1.14,25.38ZM33.56,6.26A2.58,2.58,0,1,0,31,3.66,2.59,2.59,0,0,0,33.56,6.26ZM13.62,7a2.56,2.56,0,0,0-2.53,2.64,2.58,2.58,0,1,0,5.16-.16A2.54,2.54,0,0,0,13.62,7Z"/><path d="M37.86,43.9a6.19,6.19,0,1,1,6.21,6.18A6.15,6.15,0,0,1,37.86,43.9Zm8.6,1.74a2.12,2.12,0,0,0-1.74-2.27c-.3-.06-.62-.06-.93-.1a.94.94,0,0,1-.94-.92,1.09,1.09,0,0,1,1-1.06,1.25,1.25,0,0,1,1.32.64.6.6,0,0,0,.9.23c.34-.23.31-.57.11-.92a2.17,2.17,0,0,0-1.11-1c-.3-.11-.45-.24-.45-.58s-.27-.52-.6-.52a.5.5,0,0,0-.56.51c0,.36-.19.48-.48.61a2.25,2.25,0,0,0-1.29,2.45,2.1,2.1,0,0,0,1.88,1.74l.83.07a.88.88,0,0,1,.83.68,1,1,0,0,1-.46,1.12,1.25,1.25,0,0,1-1.79-.47c-.25-.33-.53-.48-.89-.25s-.35.56-.14.91a2.29,2.29,0,0,0,1.15,1,.52.52,0,0,1,.41.5.56.56,0,0,0,.61.58.54.54,0,0,0,.59-.59c0-.32.18-.38.41-.49A2.17,2.17,0,0,0,46.46,45.64Z"/><path d="M42.06,34.07h-5.7a1.05,1.05,0,0,1-1.2-1.17c0-.63,0-1.25,0-1.88a1,1,0,0,1,1.13-1.14H47.78A1,1,0,0,1,48.93,31c0,.64,0,1.28,0,1.93a1,1,0,0,1-1.18,1.13Z"/><path d="M36.58,35.23h5.8a1,1,0,0,1,1.07,1.08c0,.24-.08.34-.32.37a7,7,0,0,0-4.65,2.52.68.68,0,0,1-.55.23h-7.1a1,1,0,0,1-1.13-1.13c0-.64,0-1.29,0-1.93a1,1,0,0,1,1.13-1.13Z"/><path d="M40,50.08H30.9c-.81,0-1.19-.35-1.2-1.16,0-.64,0-1.29,0-1.93a1,1,0,0,1,1.11-1.1h5.85c.21,0,.36,0,.43.26A8.23,8.23,0,0,0,40,50.08Z"/><path d="M34,40.55c1.05,0,2.1,0,3.14,0,.35,0,.43.07.27.41a6.72,6.72,0,0,0-.62,3.45c0,.29-.07.35-.34.35h-5.7a1,1,0,0,1-1-1c0-.7,0-1.39,0-2.09a1,1,0,0,1,1.09-1.07c1.06,0,2.12,0,3.18,0Z"/></g></g></svg>