<svg xmlns="http://www.w3.org/2000/svg" viewBox="0 0 44 40.34"><defs><style>.cls-1{fill:#211601;}.cls-2{fill:#e91d25;}</style></defs><title>Asset 4</title><g id="Layer_2" data-name="Layer 2"><g id="Layer_1-2" data-name="Layer 1"><path class="cls-1" d="M0,19.38V14.61A3.59,3.59,0,0,1,3.62,11H11.5a.66.66,0,0,1,.53.22L28.92,28.06a.65.65,0,0,1,.21.53c0,3,0,6,0,9.05a1,1,0,0,1-.55,1,1,1,0,0,1-1.15-.21L14.16,28.15a1.4,1.4,0,0,0-.94-.33c-3.12,0-6.23,0-9.34,0A3.67,3.67,0,0,1,.05,24.79a4,4,0,0,1,0-.69V19.38Z"/><path class="cls-1" d="M29.11,23l-9.89-9.88C18.11,12,17,10.84,15.88,9.74c-.2-.2-.23-.29,0-.48q5.81-4.49,11.58-9A1,1,0,0,1,28.6.11a1,1,0,0,1,.53.92q0,10.83,0,21.66C29.13,22.76,29.12,22.82,29.11,23Z"/><path class="cls-2" d="M44,38.63a1.3,1.3,0,0,0-.21.16c-.46.46-.92.9-1.36,1.38-.21.22-.33.23-.56,0q-4.68-4.71-9.39-9.41L4.82,3.13c-.24-.24-.28-.37,0-.61.45-.4.87-.84,1.28-1.28.22-.25.35-.26.59,0Q11.83,6.4,17,11.55l26.69,26.7A.85.85,0,0,1,44,38.63Z"/><path class="cls-1" d="M39.67,33.49c-.56-.56-1.08-1.11-1.62-1.63-.17-.16-.14-.27,0-.44A22,22,0,0,0,41.18,23,22.45,22.45,0,0,0,38.12,7.51a21.59,21.59,0,0,0-3.17-4,1.28,1.28,0,0,1-.07-1.87,1.26,1.26,0,0,1,1.86.1,24.51,24.51,0,0,1,6.94,13.67A24.75,24.75,0,0,1,39.8,33.31Z"/><path class="cls-1" d="M38.09,20.31a16.23,16.23,0,0,1-2.61,8.14c-.16.26-.27.32-.5.06-.42-.46-.87-.89-1.31-1.32-.17-.16-.22-.27-.09-.5a13.94,13.94,0,0,0,2-7.79A14,14,0,0,0,31.5,9.37,1.44,1.44,0,0,1,31,8.26a1.19,1.19,0,0,1,.82-1.09,1.22,1.22,0,0,1,1.37.32,17,17,0,0,1,3.42,5A18.05,18.05,0,0,1,38.09,20.31Z"/><path class="cls-1" d="M35.61,37.51a1.14,1.14,0,0,1-1-.67,1.22,1.22,0,0,1,.12-1.33,4.25,4.25,0,0,1,.35-.39c.46-.46.46-.46.93,0s.73.75,1.11,1.11c.15.15.16.23,0,.39C36.56,37.32,36.26,37.51,35.61,37.51Z"/><path class="cls-1" d="M31.08,30l1.63,1.61a1.17,1.17,0,0,1-1.23-.18A1.25,1.25,0,0,1,31.08,30Z"/></g></g></svg>