<svg xmlns="http://www.w3.org/2000/svg" viewBox="0 0 53.89 53.88"><defs><style>.cls-1{fill:#e91d25;}.cls-2{fill:#030303;}</style></defs><title>Asset 5</title><g id="Layer_2" data-name="Layer 2"><g id="Layer_1-2" data-name="Layer 1"><path class="cls-1" d="M26.89,53.88a26.94,26.94,0,1,1,27-26.95A26.93,26.93,0,0,1,26.89,53.88ZM24.5,26.78a17.5,17.5,0,0,0-1.91-1.94c-.72-.81-1.51-1.54-2.27-2.31a.66.66,0,0,0-.15-.05c0-.13-.08-.19-.15-.25l-11-11c-.17-.18-.26-.17-.41,0A23.59,23.59,0,0,0,3.29,31.35a23.16,23.16,0,0,0,9.92,15.36,23.54,23.54,0,0,0,18.06,3.93A23.46,23.46,0,0,0,42.5,45.33c.42-.35.34-.28,0-.59l-8.67-8.68c-.68-.68-1.34-1.38-2.06-2s-1.49-1.52-2.24-2.26c0,0-.06,0-.1,0s0-.12-.09-.17L27,29.22a.24.24,0,0,0-.18-.09c0-.13-.11-.19-.18-.26C26,28.23,25.4,27.61,24.77,27,24.69,26.9,24.63,26.8,24.5,26.78ZM24,22.07a.75.75,0,0,0,.1.17l2.41,2.41a.44.44,0,0,0,.15.08A27.3,27.3,0,0,0,29,27.09c.85.92,1.74,1.8,2.65,2.66L33.9,32a.45.45,0,0,0,.12.06c0,.12.1.17.17.24q5.22,5.24,10.45,10.47c.2.2.3.17.47,0,5.65-6.81,7.33-14.5,4.82-23A23.85,23.85,0,0,0,28.75,2.94,23.71,23.71,0,0,0,11.14,8.76c-.22.19-.25.29,0,.51,3.32,3.3,6.62,6.62,9.93,9.92.08.08.13.2.27.18s0,.1.05.13c.84.85,1.69,1.69,2.53,2.53A.23.23,0,0,0,24,22.07Z"/><path class="cls-2" d="M26.84,29.13,25,30.81c-3.62,3.36-4.28,7.44-2.85,12a10.68,10.68,0,0,0,2.26,3.88l.23.28c-.18.07-.28-.05-.39-.11a9.91,9.91,0,0,1-4.35-5.15,11.63,11.63,0,0,1,.85-10.8,17.87,17.87,0,0,1,3.29-3.71l.45-.41c.13,0,.19.12.27.2.63.63,1.26,1.25,1.89,1.89C26.73,28.94,26.85,29,26.84,29.13Z"/><path class="cls-2" d="M26.66,24.73a11.09,11.09,0,0,0,3-6,11.39,11.39,0,0,0-1.94-8.44A13.59,13.59,0,0,0,25,7.4c.18-.07.3,0,.43.09a11.22,11.22,0,0,1,6.17,6.15,9.75,9.75,0,0,1,.74,2.54A12.59,12.59,0,0,1,29,27.09,27.3,27.3,0,0,1,26.66,24.73Z"/><path class="cls-2" d="M31.64,29.75a39.28,39.28,0,0,0,3-2.65,10.7,10.7,0,0,0,2.94-8.84,1.23,1.23,0,0,1,0-.63h0a9.41,9.41,0,0,1-.2,11A20.14,20.14,0,0,1,34,32.09.45.45,0,0,1,33.9,32Z"/><path class="cls-2" d="M22.59,24.84a15.38,15.38,0,0,1-3,3,22.74,22.74,0,0,0-2.17,1.87,5.94,5.94,0,0,0-1.72,3.18,3.79,3.79,0,0,0,.22,2.1,2.87,2.87,0,0,1-1.27-1.67,5.76,5.76,0,0,1,.16-3.8,9.31,9.31,0,0,1,1.73-2.8c.69-.82,1.47-1.57,2.2-2.36a12.62,12.62,0,0,0,1.46-1.88.66.66,0,0,1,.15.05C21.08,23.3,21.87,24,22.59,24.84Z"/><path class="cls-2" d="M31.8,34a13.29,13.29,0,0,0-2.51,3,4.94,4.94,0,0,0-.49,4,3.91,3.91,0,0,0,2.3,2.63,1.84,1.84,0,0,1-1.19,0,4.7,4.7,0,0,1-3.1-2.79,6.43,6.43,0,0,1,.09-5.44,11.69,11.69,0,0,1,2.56-3.7s.08,0,.1,0C30.31,32.52,31.08,33.25,31.8,34Z"/><path class="cls-2" d="M18.2,10.28c.11-.1.21,0,.31,0A8,8,0,0,1,23,13.75a9.53,9.53,0,0,1,1,8.32.23.23,0,0,1-.1,0c-.84-.84-1.69-1.68-2.53-2.53,0,0,0-.08-.05-.13a10.33,10.33,0,0,0-3.13-9.1Z"/><path class="cls-2" d="M37.53,17.63l0,.05,0,0,.06,0Z"/><polygon class="cls-2" points="18.19 10.27 18.2 10.27 18.2 10.28 18.19 10.27"/></g></g></svg>