<svg xmlns="http://www.w3.org/2000/svg" viewBox="0 0 37.13 55.46"><defs><style>.cls-1{fill:#fff;}</style></defs><title>Asset 8</title><g id="Layer_2" data-name="Layer 2"><g id="Layer_1-2" data-name="Layer 1"><path class="cls-1" d="M10.66,15.15c.06-.81.05-1.58.18-2.32C11.42,9.68,13,7.25,16.08,6a1,1,0,0,0,.75-1,1.42,1.42,0,0,0-.93-1.18,8,8,0,0,0-5.62.71A9.75,9.75,0,0,0,5.39,11a36.83,36.83,0,0,0-.63,3.85c-.55,0-1.19,0-1.84,0a1,1,0,0,0-1,.56,1,1,0,0,0,.26,1.12L7.4,22.82c.51.6,1.06.63,1.54,0q2.46-3.12,4.86-6.3a1.17,1.17,0,0,0,0-1,1,1,0,0,0-.75-.4C12.32,15.12,11.54,15.15,10.66,15.15Z"/><path class="cls-1" d="M26.1,16.62V17c0,1.05.27,1.32,1.32,1.32A7.77,7.77,0,0,0,35.35,10a1,1,0,0,0-1-1A7.73,7.73,0,0,0,26.1,16.62Z"/><path class="cls-1" d="M25.22,16.65h.05c-.08-.56-.11-1.14-.24-1.7A7.68,7.68,0,0,0,16.8,9a.78.78,0,0,0-.82.86,11.17,11.17,0,0,0,.09,1.83,7.73,7.73,0,0,0,8.25,6.55.91.91,0,0,0,.9-.94C25.23,17.1,25.22,16.87,25.22,16.65Z"/><path class="cls-1" d="M22.59,6.2a8.31,8.31,0,0,0,2.2,5.71c.66.74,1.07.74,1.74,0A8.48,8.48,0,0,0,26.42.43c-.54-.57-1-.58-1.51,0A8.34,8.34,0,0,0,22.59,6.2Z"/><path d="M15.82,51.19a15.33,15.33,0,0,1-1.25,1.13,8.64,8.64,0,0,1-9.38,1A8.29,8.29,0,0,1,0,45.28,15,15,0,0,1,4.58,34.66a7.33,7.33,0,0,1,.68-.57L6,33.55,4.63,29.86a2.67,2.67,0,0,1-.16-.53.84.84,0,0,1,1-1,2.85,2.85,0,0,0,3-1,.87.87,0,0,1,1.41,0,3.13,3.13,0,0,0,2.61,1c.85-.07,1.27.52,1,1.33s-.46,1.33-.7,2l-.65,1.83,3.1,2.95c1.44-3.23,3.27-6.22,6.51-8.16-.19-.56-.39-1.13-.59-1.7-.45-1.26-.86-2.53-1.37-3.76C19.43,22,20,21.15,21,21.4A3.55,3.55,0,0,0,24.89,20a.77.77,0,0,1,1.26-.09,4.83,4.83,0,0,0,4,1.5c.78,0,1.15.56.88,1.34-.6,1.71-1.21,3.43-1.84,5.13-.15.39-.08.57.27.8a16,16,0,0,1,5.21,6.06,17.73,17.73,0,0,1,2.44,8.19,13.69,13.69,0,0,1-.87,4.89,11.8,11.8,0,0,1-17.39,5.78c-.55-.35-1.05-.77-1.56-1.17ZM25.5,29.68a5.06,5.06,0,0,1-.78,0,3.92,3.92,0,0,0-3.5,1.3A17.55,17.55,0,0,0,15.5,43.83a9.28,9.28,0,0,0,4.85,8.47,10,10,0,0,0,15.14-7.82,16.65,16.65,0,0,0-2.06-8.55A15,15,0,0,0,29,30.4a3,3,0,0,0-2.26-.73A10.92,10.92,0,0,1,25.5,29.68ZM10.59,46.11c-.77,0-1.49,0-2.21,0a.94.94,0,0,1-.57-.3.88.88,0,0,0-1.59.57,1.51,1.51,0,0,0,1.41,1.46,7.54,7.54,0,0,0,.82,0c.24.84.52,1.16,1,1.12.66-.05.81-.54.87-1.11h.3a1.6,1.6,0,0,0,1.74-1.73v-.61c0-1.56-.52-2.08-2.06-2.08H8v-.85c.75,0,1.46,0,2.16,0a1.15,1.15,0,0,1,.61.31.89.89,0,0,0,1.59-.62,1.56,1.56,0,0,0-1.45-1.44l-.6,0c0-.57-.21-1-.79-1.08s-.77.26-1.05,1.09l-.27,0c-1.46,0-2,.54-2,2v.39c0,1.41.55,2,2,2h2.43ZM7,30.38c.29.78.61,1.67,1,2.54a.61.61,0,0,0,.43.3c.65,0,1.3,0,2,0a.5.5,0,0,0,.38-.21c.36-.94.69-1.9,1-2.75-.69-.33-1.32-.64-1.95-.93a.61.61,0,0,0-.44,0C8.54,29.65,7.79,30,7,30.38Z"/><path d="M10.66,15.15c.88,0,1.66,0,2.43,0a1,1,0,0,1,.75.4,1.17,1.17,0,0,1,0,1q-2.4,3.18-4.86,6.3c-.48.61-1,.58-1.54,0L2.13,16.55a1,1,0,0,1-.26-1.12,1,1,0,0,1,1-.56c.65,0,1.29,0,1.84,0A36.83,36.83,0,0,1,5.39,11a9.75,9.75,0,0,1,4.89-6.46,8,8,0,0,1,5.62-.71A1.42,1.42,0,0,1,16.83,5a1,1,0,0,1-.75,1c-3.12,1.22-4.66,3.65-5.24,6.8C10.71,13.57,10.72,14.34,10.66,15.15Z"/><path d="M26.1,16.62a7.73,7.73,0,0,1,8.24-7.7,1,1,0,0,1,1,1,7.77,7.77,0,0,1-7.93,8.31c-1.05,0-1.32-.27-1.32-1.32Z"/><path d="M25.22,16.65c0,.22,0,.45,0,.67a.91.91,0,0,1-.9.94,7.73,7.73,0,0,1-8.25-6.55A11.17,11.17,0,0,1,16,9.88.78.78,0,0,1,16.8,9,7.68,7.68,0,0,1,25,14.94c.13.56.16,1.14.24,1.7Z"/><path d="M22.59,6.2A8.34,8.34,0,0,1,24.91.42c.53-.57,1-.56,1.51,0a8.48,8.48,0,0,1,.11,11.5c-.67.72-1.08.72-1.74,0A8.31,8.31,0,0,1,22.59,6.2Z"/><path d="M27.38,45.25c.05-.09.08-.12.08-.15.31-1.74.31-1.74-1.45-1.74H23.72a1.88,1.88,0,0,1-2-2c0-.47,0-.93,0-1.4a1.83,1.83,0,0,1,1.89-1.85c.38,0,.77,0,1.14,0,.21-1.2.45-1.56,1-1.54s.8.45.87,1.54c.3,0,.6,0,.91,0a1.82,1.82,0,0,1,1.79,1.53.9.9,0,0,1-.56,1.08.84.84,0,0,1-1.06-.47c-.08-.14-.24-.32-.37-.32-1.24,0-2.48,0-3.77,0l-.1,1.61h1.36l2.56,0a1.87,1.87,0,0,1,2,2c0,.45,0,.89,0,1.34a1.86,1.86,0,0,1-2.05,2H26.6c-.22,1.27-.41,1.59-1,1.53-.9-.09-.85-.83-.88-1.55-.49,0-1,0-1.41,0a1.77,1.77,0,0,1-1.64-1.55.9.9,0,0,1,.61-1,.83.83,0,0,1,1,.48c.07.13.2.31.31.31C24.9,45.14,26.15,45.19,27.38,45.25Z"/></g></g></svg>