<svg xmlns="http://www.w3.org/2000/svg" xmlns:xlink="http://www.w3.org/1999/xlink" viewBox="0 0 54.01 54"><defs><style>.cls-1{fill:url(#linear-gradient);}.cls-2{fill:url(#linear-gradient-2);}.cls-3{fill:#e91d25;}.cls-4{fill:#030303;}</style><linearGradient id="linear-gradient" x1="14.54" y1="26.78" x2="33.32" y2="26.78" gradientUnits="userSpaceOnUse"><stop offset="0" stop-color="#00283e"/><stop offset="1" stop-color="#00101a"/></linearGradient><linearGradient id="linear-gradient-2" x1="25.34" y1="34.56" x2="38.21" y2="34.56" xlink:href="#linear-gradient"/></defs><title>Asset 6</title><g id="Layer_2" data-name="Layer 2"><g id="Layer_1-2" data-name="Layer 1"><path class="cls-1" d="M24.54,21.92c2.82-2.84,4.35-6.15,3.88-10.26a45,45,0,0,0-1.39-6c.24,0,.38,0,.46,0C34.25,10,35.37,21.36,29.62,27l-5.37,4.6c-3.72,4.25-3.69,9.22,0,13.54L26.6,48c-2.8,0-5.16-.12-7.32-1.29-3.84-2.08-5.5-6.69-4.42-11.8.73-3.48,2.83-6.11,5.12-8.62Z"/><path class="cls-2" d="M32.73,28.27c2-1.7,3.73-2.78,4.52-5.43a6.8,6.8,0,0,1,.85,2.79c.22,2.35.23,4.45-1.37,6.63l-5.84,6.85a3.53,3.53,0,0,0-1,4.63c.41.83.88,1.62,1.38,2.54-3.17-.62-6.18-3.89-5.94-6.56a10.74,10.74,0,0,1,2.56-6.89Z"/><path class="cls-3" d="M27,54A27,27,0,1,1,54,27,27,27,0,0,1,27,54ZM24.56,26.84a18.61,18.61,0,0,0-1.92-1.95c-.72-.81-1.52-1.54-2.28-2.31a.52.52,0,0,0-.15-.06c0-.12-.08-.18-.15-.25l-11-11c-.17-.17-.26-.16-.41,0A23.63,23.63,0,0,0,3.3,31.42a23.21,23.21,0,0,0,9.94,15.39,23.59,23.59,0,0,0,18.09,3.94,23.39,23.39,0,0,0,11.26-5.32c.42-.35.34-.28,0-.59l-8.69-8.7c-.68-.68-1.34-1.39-2.07-2s-1.48-1.52-2.24-2.26c0,0-.06,0-.09,0a.22.22,0,0,0-.09-.17l-2.37-2.37a.24.24,0,0,0-.17-.09c0-.13-.11-.19-.18-.26L24.82,27A.47.47,0,0,0,24.56,26.84Zm-.51-4.73a.48.48,0,0,0,.1.17l2.42,2.43.15.08a30.51,30.51,0,0,0,2.33,2.36c.85.92,1.74,1.8,2.66,2.66.75.77,1.51,1.53,2.27,2.29,0,0,.08,0,.12.06s.09.17.16.24L44.74,42.89c.2.2.29.17.46,0,5.67-6.82,7.35-14.53,4.83-23A23.87,23.87,0,0,0,28.81,3,23.73,23.73,0,0,0,11.17,8.78c-.23.19-.25.29,0,.51q5,5,10,10c.07.07.13.19.27.18a.26.26,0,0,0,.05.12L24,22.08S24,22.1,24.05,22.11Z"/><path class="cls-4" d="M37.61,17.67l0,0v0h0Z"/><polygon class="cls-4" points="18.23 10.29 18.24 10.29 18.24 10.3 18.23 10.29"/></g></g></svg>