<svg xmlns="http://www.w3.org/2000/svg" xmlns:xlink="http://www.w3.org/1999/xlink" viewBox="0 0 67.12 51.46"><defs><style>.cls-1{fill:url(#linear-gradient);}.cls-2{fill:url(#linear-gradient-2);}.cls-3{fill:url(#linear-gradient-3);}.cls-4{fill:url(#linear-gradient-4);}.cls-5{fill:url(#linear-gradient-5);}.cls-6{fill:url(#linear-gradient-6);}.cls-7{fill:url(#linear-gradient-7);}.cls-8{fill:url(#linear-gradient-8);}.cls-9{fill:url(#linear-gradient-9);}.cls-10{fill:url(#linear-gradient-10);}.cls-11{fill:url(#linear-gradient-11);}.cls-12{fill:url(#linear-gradient-12);}.cls-13{fill:url(#linear-gradient-13);}.cls-14{fill:url(#linear-gradient-14);}.cls-15{fill:url(#linear-gradient-15);}.cls-16{fill:url(#linear-gradient-16);}.cls-17{fill:url(#linear-gradient-17);}.cls-18{fill:url(#linear-gradient-18);}.cls-19{fill:url(#linear-gradient-19);}.cls-20{fill:url(#linear-gradient-20);}.cls-21{fill:url(#linear-gradient-21);}.cls-22{fill:url(#linear-gradient-22);}.cls-23{fill:url(#linear-gradient-23);}.cls-24{fill:url(#linear-gradient-24);}.cls-25{fill:url(#linear-gradient-25);}.cls-26{fill:url(#linear-gradient-26);}.cls-27{fill:url(#linear-gradient-27);}.cls-28{fill:url(#linear-gradient-28);}.cls-29{fill:url(#linear-gradient-29);}.cls-30{fill:url(#linear-gradient-30);}.cls-31{fill:url(#linear-gradient-31);}.cls-32{fill:url(#linear-gradient-32);}.cls-33{fill:url(#linear-gradient-33);}</style><linearGradient id="linear-gradient" x1="13.9" y1="25.79" x2="38.5" y2="25.79" gradientUnits="userSpaceOnUse"><stop offset="0" stop-color="#00283e"/><stop offset="1" stop-color="#00101a"/></linearGradient><linearGradient id="linear-gradient-2" x1="31.41" y1="48.34" x2="42.38" y2="48.34" xlink:href="#linear-gradient"/><linearGradient id="linear-gradient-3" x1="44.13" y1="48.3" x2="55.1" y2="48.3" xlink:href="#linear-gradient"/><linearGradient id="linear-gradient-4" x1="19.41" y1="48.32" x2="30.83" y2="48.32" xlink:href="#linear-gradient"/><linearGradient id="linear-gradient-5" x1="55.68" y1="48.33" x2="67.12" y2="48.33" xlink:href="#linear-gradient"/><linearGradient id="linear-gradient-6" x1="32.81" y1="41.02" x2="42.37" y2="41.02" xlink:href="#linear-gradient"/><linearGradient id="linear-gradient-7" x1="44.16" y1="41.01" x2="53.71" y2="41.01" xlink:href="#linear-gradient"/><linearGradient id="linear-gradient-8" x1="54.5" y1="41" x2="64.19" y2="41" xlink:href="#linear-gradient"/><linearGradient id="linear-gradient-9" x1="22.28" y1="41" x2="32.01" y2="41" xlink:href="#linear-gradient"/><linearGradient id="linear-gradient-10" x1="33.99" y1="34.48" x2="42.4" y2="34.48" xlink:href="#linear-gradient"/><linearGradient id="linear-gradient-11" x1="44.15" y1="34.5" x2="52.53" y2="34.5" xlink:href="#linear-gradient"/><linearGradient id="linear-gradient-12" x1="53.39" y1="34.5" x2="61.8" y2="34.5" xlink:href="#linear-gradient"/><linearGradient id="linear-gradient-13" x1="24.73" y1="34.47" x2="33.12" y2="34.47" xlink:href="#linear-gradient"/><linearGradient id="linear-gradient-14" x1="35.11" y1="28.81" x2="42.39" y2="28.81" xlink:href="#linear-gradient"/><linearGradient id="linear-gradient-15" x1="44.14" y1="28.81" x2="51.42" y2="28.81" xlink:href="#linear-gradient"/><linearGradient id="linear-gradient-16" x1="52.5" y1="28.8" x2="59.5" y2="28.8" xlink:href="#linear-gradient"/><linearGradient id="linear-gradient-17" x1="27.03" y1="28.78" x2="34.01" y2="28.78" xlink:href="#linear-gradient"/><linearGradient id="linear-gradient-18" x1="7.44" y1="41.15" x2="15.57" y2="41.15" xlink:href="#linear-gradient"/><linearGradient id="linear-gradient-19" x1="37.19" y1="11.55" x2="45.14" y2="11.55" xlink:href="#linear-gradient"/><linearGradient id="linear-gradient-20" x1="7.45" y1="11.39" x2="15.57" y2="11.39" xlink:href="#linear-gradient"/><linearGradient id="linear-gradient-21" x1="25.43" y1="5.3" x2="27.13" y2="5.3" xlink:href="#linear-gradient"/><linearGradient id="linear-gradient-22" x1="0" y1="26.27" x2="10.61" y2="26.27" xlink:href="#linear-gradient"/><linearGradient id="linear-gradient-23" x1="20.02" y1="8.19" x2="22.94" y2="8.19" xlink:href="#linear-gradient"/><linearGradient id="linear-gradient-24" x1="33.68" y1="10.05" x2="37.61" y2="10.05" xlink:href="#linear-gradient"/><linearGradient id="linear-gradient-25" x1="5.22" y1="31.11" x2="11.18" y2="31.11" xlink:href="#linear-gradient"/><linearGradient id="linear-gradient-26" x1="7.31" y1="16.86" x2="12.85" y2="16.86" xlink:href="#linear-gradient"/><linearGradient id="linear-gradient-27" x1="41.37" y1="21.43" x2="47.34" y2="21.43" xlink:href="#linear-gradient"/><linearGradient id="linear-gradient-28" x1="15" y1="42.51" x2="18.98" y2="42.51" xlink:href="#linear-gradient"/><linearGradient id="linear-gradient-29" x1="16.48" y1="11.35" x2="18.88" y2="11.35" xlink:href="#linear-gradient"/><linearGradient id="linear-gradient-30" x1="39.73" y1="17.71" x2="42.69" y2="17.71" xlink:href="#linear-gradient"/><linearGradient id="linear-gradient-31" x1="9.96" y1="34.98" x2="12.79" y2="34.98" xlink:href="#linear-gradient"/><linearGradient id="linear-gradient-32" x1="29.71" y1="9.59" x2="31.87" y2="9.59" xlink:href="#linear-gradient"/><linearGradient id="linear-gradient-33" x1="8.1" y1="21.81" x2="11.2" y2="21.81" xlink:href="#linear-gradient"/></defs><title>Asset 2</title><g id="Layer_2" data-name="Layer 2"><g id="Layer_1-2" data-name="Layer 1"><path class="cls-1" d="M38.5,24.6H33.35c-2.06,0-4.11,0-6.17,0a.8.8,0,0,0-.9.65c-1.42,4-2.86,7.9-4.3,11.85-.07.21-.16.41-.24.62-4.53-.81-8.43-7.35-7.76-13A12.35,12.35,0,0,1,27.33,13.92,12.17,12.17,0,0,1,38.5,24.6Z"/><path class="cls-2" d="M32.5,45.24h9.88v6.19h-11Z"/><path class="cls-3" d="M44.13,51.41V45.25c.22,0,.42,0,.61,0,2.88,0,5.76,0,8.65,0,.46,0,.65.09.73.59.29,1.85.64,3.7,1,5.62Z"/><path class="cls-4" d="M19.41,51.44c.57-1.59,1.12-3.13,1.67-4.65s.58-1.58,2.24-1.58h7.51l-1.09,6.23Z"/><path class="cls-5" d="M67.12,51.46H56.78c-.36-2.07-.72-4.13-1.1-6.25H59.1c1.75,0,3.49,0,5.23,0a.84.84,0,0,1,.62.32C65.69,47.48,66.38,49.43,67.12,51.46Z"/><path class="cls-6" d="M42.37,43.53H32.81l.87-5h8.69Z"/><path class="cls-7" d="M52.83,38.51c.29,1.67.58,3.32.88,5H44.16v-5Z"/><path class="cls-8" d="M55.39,43.53l-.89-5.06h.81c2.17,0,4.34,0,6.51,0,.41,0,.63.09.77.52.46,1.35,1,2.68,1.45,4,.06.16.1.33.15.52Z"/><path class="cls-9" d="M32,38.47l-.88,5.06H22.28c.31-.84.6-1.65.89-2.45s.52-1.48.81-2.2c.07-.16.28-.39.43-.39C26.9,38.47,29.4,38.47,32,38.47Z"/><path class="cls-10" d="M42.4,32.19v4.58H34l.8-4.58Z"/><path class="cls-11" d="M52.53,36.79H44.15V32.2h7.57C52,33.7,52.25,35.2,52.53,36.79Z"/><path class="cls-12" d="M53.39,32.17c2.2,0,4.32,0,6.44,0a.48.48,0,0,1,.35.23c.54,1.43,1,2.88,1.62,4.42H59.92c-1.69,0-3.39,0-5.09,0-.47,0-.67-.11-.74-.6C53.89,34.91,53.64,33.6,53.39,32.17Z"/><path class="cls-13" d="M33.12,32.16l-.81,4.62H24.73L26,33.28c.4-1.12.4-1.12,1.61-1.12Z"/><path class="cls-14" d="M42.39,27.15v3.31H35.11l.57-3.31Z"/><path class="cls-15" d="M51.42,30.48H44.14V27.14h6.68Z"/><path class="cls-16" d="M59.5,30.51c-2.1,0-4.06,0-6,0a.57.57,0,0,1-.42-.35c-.2-1-.36-2-.55-3.05H54c1.25,0,2.5,0,3.75,0a.58.58,0,0,1,.68.46C58.75,28.51,59.11,29.46,59.5,30.51Z"/><path class="cls-17" d="M34,27.09l-.59,3.38H27c.4-1.11.77-2.15,1.17-3.18a.37.37,0,0,1,.31-.19Z"/><path class="cls-18" d="M15.57,37.91a5.59,5.59,0,0,1-.5.78q-3,3-6,6c-.47.47-1,.51-1.36.15s-.33-.88.14-1.35c2-2,4-4.07,6.09-6.06A1.44,1.44,0,0,1,15,37.21C15.2,37.24,15.35,37.63,15.57,37.91Z"/><path class="cls-19" d="M38,15.54c-.28-.18-.61-.29-.71-.5a1.39,1.39,0,0,1,0-.88c0-.19.27-.35.43-.5L43.36,8c.13-.13.26-.34.4-.35a1.81,1.81,0,0,1,1.09.06c.4.25.35.73.08,1.13a2.05,2.05,0,0,1-.32.34c-1.93,1.93-3.85,3.86-5.79,5.78A6.1,6.1,0,0,1,38,15.54Z"/><path class="cls-20" d="M15.57,14.61c-.21.28-.36.66-.58.7a1.3,1.3,0,0,1-1-.2c-1.1-1-2.14-2.1-3.2-3.16L7.85,9c-.46-.46-.53-1-.17-1.35A1,1,0,0,1,9,7.81c2,2,4,4,6,6A4.88,4.88,0,0,1,15.57,14.61Z"/><path class="cls-21" d="M27.12,5.32c0,1.41,0,2.82,0,4.23,0,.7-.3,1-.84,1s-.84-.35-.84-1.06c0-2.84,0-5.68,0-8.52a1.49,1.49,0,0,1,.54-1,.88.88,0,0,1,.82.15,1.22,1.22,0,0,1,.29.83C27.14,2.46,27.12,3.89,27.12,5.32Z"/><path class="cls-22" d="M5.36,25.43H9.58c.56,0,1,.16,1,.8s-.3.88-1,.88H1c-.72,0-1-.3-1-.86s.35-.81,1.07-.81Z"/><path class="cls-23" d="M22.94,10.46c-.24.21-.48.61-.78.65a1,1,0,0,1-.89-.46c-.47-1.48-.86-3-1.22-4.51a.68.68,0,0,1,.6-.88c.31,0,.85.18.92.4C22.07,7.19,22.46,8.74,22.94,10.46Z"/><path class="cls-24" d="M34.69,12.81c-.77,0-1.21-.62-.92-1.17.73-1.35,1.51-2.68,2.3-4a.78.78,0,0,1,1.13-.22.74.74,0,0,1,.31,1q-1.11,2-2.31,4C35.09,12.66,34.79,12.75,34.69,12.81Z"/><path class="cls-25" d="M11.18,30.78c-.14.12-.37.47-.67.56-1.38.42-2.78.78-4.18,1.14a.79.79,0,0,1-1.06-.55.8.8,0,0,1,.62-1.08c1.4-.38,2.79-.76,4.2-1.11C10.72,29.58,11.19,30,11.18,30.78Z"/><path class="cls-26" d="M8,14.86a5.23,5.23,0,0,1,.7.28c1.2.69,2.4,1.37,3.59,2.07.54.32.69.79.42,1.23a.82.82,0,0,1-1.22.26C10.26,18,9,17.28,7.79,16.57a.76.76,0,0,1-.41-1C7.5,15.28,7.81,15.08,8,14.86Z"/><path class="cls-27" d="M47.34,21.08c-.13.12-.32.47-.61.56-1.41.42-2.84.78-4.27,1.15a.78.78,0,0,1-1-.58.77.77,0,0,1,.59-1c1.4-.39,2.8-.78,4.21-1.12C46.89,19.9,47.34,20.27,47.34,21.08Z"/><path class="cls-28" d="M19,40.42a6.65,6.65,0,0,1-.32.74c-.66,1.16-1.33,2.32-2,3.47-.33.57-.81.75-1.26.49s-.54-.76-.2-1.35c.68-1.19,1.34-2.41,2.09-3.56a1.26,1.26,0,0,1,1-.43C18.53,39.8,18.75,40.2,19,40.42Z"/><path class="cls-29" d="M17.53,9.87a3.27,3.27,0,0,1,.69.73c.28.56.94,1.05.53,1.81a.82.82,0,0,1-1.4.05,9.16,9.16,0,0,1-.79-1.4C16.3,10.48,16.68,9.89,17.53,9.87Z"/><path class="cls-30" d="M39.73,17.9c.05-.71.8-.83,1.33-1.11a1.7,1.7,0,0,1,1.22-.17c.55.18.54,1,0,1.37a9.1,9.1,0,0,1-1.4.78A.84.84,0,0,1,39.73,17.9Z"/><path class="cls-31" d="M10.72,36.24c-.32-.29-.69-.46-.74-.71a1.11,1.11,0,0,1,.25-.94,4.71,4.71,0,0,1,1.5-.84,1,1,0,0,1,.91.28,1,1,0,0,1,.06.89A23.46,23.46,0,0,1,10.72,36.24Z"/><path class="cls-32" d="M31.87,8.79a11,11,0,0,1-.62,1.93,1.13,1.13,0,0,1-.93.38.7.7,0,0,1-.59-.89,11,11,0,0,1,.45-1.61.7.7,0,0,1,1-.46C31.44,8.26,31.66,8.59,31.87,8.79Z"/><path class="cls-33" d="M11.2,21.85c-.06.7-.38,1-.88,1a8,8,0,0,1-1.73-.46.69.69,0,0,1-.41-1A1.12,1.12,0,0,1,9,20.8a5.43,5.43,0,0,1,1.72.47C11,21.37,11.09,21.72,11.2,21.85Z"/></g></g></svg>