<svg xmlns="http://www.w3.org/2000/svg" viewBox="0 0 47.76 38.85"><defs><style>.cls-1{fill:#040404;}</style></defs><title>Asset 27</title><g id="Layer_2" data-name="Layer 2"><g id="Layer_1-2" data-name="Layer 1"><path class="cls-1" d="M21.21,7.76,14.7,12.48a1.19,1.19,0,0,0-.39-.12,1.35,1.35,0,0,0-.66.09l-3.2-3.21a.57.57,0,0,0-.79,0,.53.53,0,0,0-.05.77l3.21,3.23a1.52,1.52,0,0,0-.06.2,1.13,1.13,0,0,0,1,1.41,1.47,1.47,0,0,0,1.56-1.1,1.37,1.37,0,0,0,0-.45L21.82,8.6A.56.56,0,0,0,22,7.84.55.55,0,0,0,21.21,7.76ZM25,15.09h.35l.12,0,.18,0h2.15A12.2,12.2,0,0,0,17.12.1,15.71,15.71,0,0,0,.34,12,13.66,13.66,0,0,0,0,15.09a4.8,4.8,0,0,1,3.05,1.85,10.33,10.33,0,0,1,0-4.66A12.57,12.57,0,0,1,16.51,2.79,9.77,9.77,0,0,1,25,15C25,15,25,15,25,15.09Z"/><path class="cls-1" d="M.63,35.92l7-8.16.53-.62a30.18,30.18,0,0,0,2-2.51,6.44,6.44,0,0,0,.94-2.19,2.44,2.44,0,0,0-.06-1.6A1.05,1.05,0,0,0,10,20.29a2,2,0,0,0-1.7.87,6.25,6.25,0,0,0-.93,2.36l-.22,1h-4l.23-1.07a9.46,9.46,0,0,1,2.47-4.85,6.61,6.61,0,0,1,4.84-1.81c1.86,0,3.16.49,3.92,1.48a5,5,0,0,1,.55,4.22,8.54,8.54,0,0,1-1.26,3,32.91,32.91,0,0,1-2.62,3.3l-.39.45-5.5,6.3,6.38,0L11,38.81l-11,0Z"/><path class="cls-1" d="M19.09,33.68l-6.54,0,.7-3.22L21.75,17l4.76,0L23.59,30.52h2.1L25,33.65h-2.1l-1.1,5.1-3.83,0Zm.67-3.15,2-9.24-5.29,9.26Z"/><path class="cls-1" d="M35.25,17h2.36L26.46,38.75H24.12Z"/><path class="cls-1" d="M43.06,20.11l-5.84,0L37.9,17l9.86,0-.59,2.71L38.52,38.7h-4Z"/></g></g></svg>