<svg xmlns="http://www.w3.org/2000/svg" viewBox="0 0 31.67 23.78"><defs><style>.cls-1{font-size:22.46px;font-family:BarlowCondensed-Medium, Barlow Condensed;font-weight:500;}</style></defs><title>Asset 23</title><g id="Layer_2" data-name="Layer 2"><g id="Layer_1-2" data-name="Layer 1"><text class="cls-1" transform="translate(22.23 19.09)">5</text><path d="M17.9,4.58A35.14,35.14,0,0,1,9.35,1a.47.47,0,0,0-.46,0A33.92,33.92,0,0,1,.33,4.58.47.47,0,0,0,0,5V9.61a13.2,13.2,0,0,0,4,9.66c2,1.93,4.27,3,5.11,3s3.13-1.07,5.1-3a13.2,13.2,0,0,0,4-9.66V5A.46.46,0,0,0,17.9,4.58Zm-.57,5a12.33,12.33,0,0,1-3.74,9,9.89,9.89,0,0,1-4.47,2.74,9.9,9.9,0,0,1-4.48-2.74,12.37,12.37,0,0,1-3.74-9V5.36a35.38,35.38,0,0,0,8.22-3.5,36.63,36.63,0,0,0,8.21,3.5Z"/><path d="M5.13,5.31a.44.44,0,0,0-.58-.25c-.81.31-1.63.6-2.45.86a.45.45,0,0,0-.32.43V8.09a.45.45,0,0,0,.9,0V6.68c.74-.24,1.48-.5,2.2-.79A.45.45,0,0,0,5.13,5.31Z"/><path d="M6,5.39a.58.58,0,0,0,.19,0h0a.45.45,0,1,0-.36-.82h0A.45.45,0,0,0,6,5.39Z"/><path d="M14.48,15.39a.47.47,0,0,0-.63.13,10.42,10.42,0,0,1-1.29,1.62,11.77,11.77,0,0,1-1.29,1.15.45.45,0,0,0-.08.63.44.44,0,0,0,.35.17.49.49,0,0,0,.28-.09,11.63,11.63,0,0,0,1.39-1.24A12.85,12.85,0,0,0,14.61,16,.47.47,0,0,0,14.48,15.39Z"/><path d="M10.23,19l0,0a.44.44,0,0,0-.16.61.43.43,0,0,0,.39.23.46.46,0,0,0,.22-.06l0,0a.45.45,0,0,0-.45-.78Z"/><path d="M6.05,10.66a1.45,1.45,0,0,0-1-.42,1.49,1.49,0,0,0-1,.42,1.47,1.47,0,0,0,0,2.07l2.66,2.66a1.46,1.46,0,0,0,1,.43,1.5,1.5,0,0,0,1-.43l5.54-5.55a1.45,1.45,0,0,0,0-2.06,1.44,1.44,0,0,0-1-.43,1.46,1.46,0,0,0-1,.43L7.67,12.29Zm6.77-2.25a.58.58,0,0,1,.8,0,.59.59,0,0,1,0,.8L8.07,14.75a.56.56,0,0,1-.8,0L4.62,12.1a.57.57,0,0,1,0-.8.58.58,0,0,1,.8,0l1.93,1.94a.48.48,0,0,0,.32.13A.46.46,0,0,0,8,13.24Z"/></g></g></svg>