<svg id="Layer_1" enable-background="new 0 0 512 512" viewBox="0 0 512 512" xmlns="http://www.w3.org/2000/svg"><g id="Layer_2_00000140001555308250445470000001481907210512138936_"><g id="dong"><path d="m395.4 55.4h-37.1v-30.7c0-13.6-11.1-24.7-24.7-24.7s-24.7 11.1-24.7 24.7v30.7h-110.6c-13.6 0-24.7 11.1-24.7 24.7s11.1 24.7 24.7 24.7h110.5v80.2c-23.7-19.6-53.5-30.4-84.3-30.4-73.1 0-132.6 59.4-132.6 132.5s59.5 132.6 132.6 132.6c30.8 0 60.6-10.7 84.3-30.4v21.8c0 13.6 11.1 24.7 24.7 24.7s24.7-11.1 24.7-24.7v-306.2h37.1c13.6 0 24.7-11.1 24.7-24.7s-11-24.8-24.6-24.8zm-170.9 314.9c-45.9 0-83.1-37.2-83.1-83.1s37.2-83.1 83.1-83.1 83.1 37.2 83.1 83.1-37.2 83.1-83.1 83.1z"/><path d="m336.5 462.6h-197c-13.6 0-24.7 11.1-24.7 24.7s11.1 24.7 24.7 24.7h197c13.6 0 24.7-11.1 24.7-24.7 0-13.7-11.1-24.7-24.7-24.7z"/></g></g></svg>