<svg xmlns="http://www.w3.org/2000/svg" viewBox="0 0 41.3 35.68"><defs><style>.cls-1{font-size:33.69px;font-family:BarlowCondensed-Medium, Barlow Condensed;font-weight:500;}</style></defs><title>Asset 33</title><g id="Layer_2" data-name="Layer 2"><g id="Layer_1-2" data-name="Layer 1"><text class="cls-1" transform="translate(0 28.64)">6</text><path d="M29.51,17.86A6.92,6.92,0,0,1,33.1,12a6.07,6.07,0,0,1,8.09,2.09.55.55,0,0,1-.24.85L38.42,16a.69.69,0,0,1-.74-.2,2.52,2.52,0,0,0-3.37,0,3.15,3.15,0,0,0-1.1,2.07A3.27,3.27,0,0,0,34.33,21a2.51,2.51,0,0,0,3.34,0,.77.77,0,0,1,.93-.13c.74.33,1.49.64,2.23,1,.51.22.61.57.28,1a6.08,6.08,0,0,1-4.87,2.72,6.14,6.14,0,0,1-5.65-3.2A7.91,7.91,0,0,1,29.51,17.86Z"/><path d="M27.3,15.51c0,2.44,0,4.88,0,7.32a.6.6,0,0,0,.21.49,3.62,3.62,0,0,1-2.87,6.16,3.61,3.61,0,0,1-2.23-6.14.72.72,0,0,0,.22-.55q0-7.26,0-14.52a2.34,2.34,0,1,1,4.67-.06c0,2.21,0,4.43,0,6.64Zm-1.78.74V8.66a2.17,2.17,0,0,0,0-.36.55.55,0,0,0-1.09,0,2.55,2.55,0,0,0,0,.39q0,7.65,0,15.3a.42.42,0,0,1-.25.44,1.65,1.65,0,0,0-.83,1.88,1.69,1.69,0,1,0,2.46-1.87.42.42,0,0,1-.27-.43C25.53,21.41,25.52,18.83,25.52,16.25Z"/><path d="M29.64,9.81a1.56,1.56,0,1,1-1.57,1.55A1.56,1.56,0,0,1,29.64,9.81Zm.42,1.56a.43.43,0,0,0-.43-.43.43.43,0,1,0,0,.86A.44.44,0,0,0,30.06,11.37Z"/><path d="M20.47,12.45c-.27,0-.55,0-.81,0a.55.55,0,0,1-.58-.53.55.55,0,0,1,.55-.59q.86,0,1.71,0a.55.55,0,0,1,.56.57.56.56,0,0,1-.59.55Z"/><path d="M20.49,9h-.81a.55.55,0,0,1-.6-.57.56.56,0,0,1,.61-.56h1.59a.57.57,0,0,1,.62.56c0,.33-.24.56-.63.57Z"/><path d="M20.49,15.88h-.84a.55.55,0,0,1-.57-.53.54.54,0,0,1,.53-.58c.58,0,1.17,0,1.76,0a.54.54,0,0,1,.53.58.56.56,0,0,1-.57.54h-.84Z"/><path d="M20.47,22.73h-.8a.56.56,0,1,1,0-1.11q.84,0,1.68,0a.54.54,0,0,1,.57.56.55.55,0,0,1-.59.55Z"/><path d="M20.47,19.3h-.84a.56.56,0,0,1,0-1.11q.87,0,1.74,0a.56.56,0,0,1,0,1.11Z"/></g></g></svg>