<svg xmlns="http://www.w3.org/2000/svg" viewBox="0 0 24.66 24.66"><title>Asset 31</title><g id="Layer_2" data-name="Layer 2"><g id="Layer_1-2" data-name="Layer 1"><path d="M0,24.13a.55.55,0,0,1,.55-.29c.77,0,1.53,0,2.33,0v-.67a.86.86,0,0,1,.82-1V22c0-1.41,0-2.83,0-4.24a.84.84,0,0,0-.12-.4q-1.52-2.43-3-4.84a.88.88,0,0,1-.17-.73.82.82,0,0,1,.85-.64H2.53c.88,0,1.77,0,2.65,0a1.1,1.1,0,0,1,1.07.58Q8.59,15.42,11,19.16a.89.89,0,0,1,.1,1,.91.91,0,0,1-.88.43h-4v1.62a.87.87,0,0,1,.81,1v.64h4.52v-.68a.85.85,0,0,1,.82-1v-.25c0-1.44,0-2.87,0-4.31a1,1,0,0,0-.12-.43L7.5,9.58a.87.87,0,0,1-.07-.95.83.83,0,0,1,.79-.41H14a.87.87,0,0,1,.78.44L21.3,19.24a.83.83,0,0,1-.75,1.32H14.81v1.61a2.84,2.84,0,0,1,.38.13.77.77,0,0,1,.42.7c0,.27,0,.54,0,.84h.3c2.73,0,5.46,0,8.19,0a.54.54,0,0,1,.55.29v.53H0ZM12.49,16a.64.64,0,0,0,0,.1c.71,1.15,1.42,2.31,2.14,3.45a.36.36,0,0,0,.27.14h5.68l-.13-.24c-.67-1.08-1.35-2.16-2-3.25a.36.36,0,0,0-.36-.2H12.49Zm-2.31-3.7c.59.95,1.15,1.87,1.72,2.77a.33.33,0,0,0,.26.1h5.67c-.58-.95-1.14-1.86-1.72-2.77,0-.06-.15-.09-.24-.09H10.18Zm5.37-.83c-.48-.78-.94-1.51-1.39-2.25A.37.37,0,0,0,13.79,9H8.15l.1.18c.44.7.88,1.41,1.31,2.12a.31.31,0,0,0,.31.16h5.68Zm-5.21,8.22c-.06-.1-.09-.17-.13-.22-.43-.69-.87-1.37-1.29-2.06a.36.36,0,0,0-.35-.19H4.82l-.26,0a.91.91,0,0,0,.07.14c.45.73.91,1.45,1.38,2.17a.39.39,0,0,0,.29.14h4ZM2.73,14.4l.14.23c.33.54.68,1.07,1,1.61a.36.36,0,0,0,.36.2h4c-.06-.1-.09-.17-.13-.23-.34-.54-.68-1.07-1-1.61a.38.38,0,0,0-.37-.2h-4ZM1.18,11.93a2.09,2.09,0,0,0,.13.23c.25.4.51.8.75,1.21a.37.37,0,0,0,.37.2H6.21l.23,0-.12-.2c-.26-.42-.52-.83-.77-1.25a.36.36,0,0,0-.35-.18h-4ZM14,22.19a.31.31,0,0,0,0-.08v-2s0-.09,0-.12l-.79-1.28v3.45Zm-8.6,0c0-.52,0-1,0-1.52a1.53,1.53,0,0,0-.3-1.05c-.18-.23-.32-.49-.51-.79v3.36Zm.8.85H3.72v.79H6.15Zm8.63,0H12.34v.79h2.44Z"/><path d="M19.85,0a.52.52,0,0,1,.29.55c0,.22,0,.45,0,.67a.41.41,0,1,1-.82,0,4.49,4.49,0,0,1,0-.82c0-.15.18-.27.28-.41Z"/><path d="M24.66,5.06a.52.52,0,0,1-.55.29c-.22,0-.43,0-.65,0A.4.4,0,0,1,23,4.93a.41.41,0,0,1,.45-.4c.21,0,.43,0,.64,0a.5.5,0,0,1,.55.3Z"/><path d="M19.78,7.4A2.47,2.47,0,1,1,22.2,4.84,2.48,2.48,0,0,1,19.78,7.4Zm-.07-.82a1.65,1.65,0,1,0,0-3.29,1.65,1.65,0,0,0,0,3.29Z"/><path d="M22.45,8.9c-.1.11-.19.28-.31.32a.49.49,0,0,1-.43-.1,4.8,4.8,0,0,1-.51-.88.39.39,0,0,1,.65-.4,9.41,9.41,0,0,1,.54.93s0,.06,0,.09Z"/><path d="M16.93,6.87a1,1,0,0,1-.21.27,8,8,0,0,1-.7.41.41.41,0,0,1-.56-.16.39.39,0,0,1,.14-.54,7.63,7.63,0,0,1,.73-.42C16.62,6.28,16.93,6.48,16.93,6.87Z"/><path d="M22.88,6.34l.26.09c.24.13.48.26.71.41a.41.41,0,1,1-.41.71c-.25-.14-.49-.28-.72-.43a.35.35,0,0,1-.16-.47A1.34,1.34,0,0,1,22.88,6.34Z"/><path d="M17.56.61a1,1,0,0,1,.26.22,5.84,5.84,0,0,1,.41.68.41.41,0,0,1-.14.56.39.39,0,0,1-.56-.14,7.63,7.63,0,0,1-.42-.73C17,.91,17.17.61,17.56.61Z"/><path d="M17.54,9.25c-.36,0-.57-.28-.44-.55a6.48,6.48,0,0,1,.46-.81.4.4,0,0,1,.52-.11.38.38,0,0,1,.18.49,6.18,6.18,0,0,1-.48.83A.5.5,0,0,1,17.54,9.25Z"/><path d="M20.14,9.05c0,.14,0,.29,0,.43a.42.42,0,0,1-.4.39.41.41,0,0,1-.41-.34,6.54,6.54,0,0,1,0-1,.37.37,0,0,1,.42-.31.37.37,0,0,1,.37.36,3.57,3.57,0,0,1,0,.46Z"/><path d="M16.93,3a.41.41,0,0,1-.59.44A6.93,6.93,0,0,1,15.59,3a.41.41,0,0,1,.42-.7,6.52,6.52,0,0,1,.72.43A.86.86,0,0,1,16.93,3Z"/><path d="M15.63,4.53c.14,0,.27,0,.41,0a.41.41,0,0,1,0,.81h-.92a.41.41,0,0,1-.36-.41.4.4,0,0,1,.4-.4C15.34,4.52,15.49,4.53,15.63,4.53Z"/><path d="M22.41,1a.94.94,0,0,1-.07.22c-.13.23-.26.47-.4.69a.41.41,0,0,1-.56.16.4.4,0,0,1-.15-.56c.13-.25.28-.49.42-.73a.34.34,0,0,1,.46-.15,1.24,1.24,0,0,1,.34.31Z"/><path d="M22.94,3.57a1.78,1.78,0,0,1-.37-.33.34.34,0,0,1,.1-.46,8.92,8.92,0,0,1,.85-.49.35.35,0,0,1,.45.13c.12.15.15.36,0,.46C23.67,3.13,23.32,3.33,22.94,3.57Z"/></g></g></svg>