<svg xmlns="http://www.w3.org/2000/svg" viewBox="0 0 19.95 30.51"><title>Asset 38</title><g id="Layer_2" data-name="Layer 2"><g id="Layer_1-2" data-name="Layer 1"><path d="M19.37,0a.55.55,0,0,0-.59.59V3.52H15.84a.55.55,0,0,0-.58.59.55.55,0,0,0,.58.58h2.94V28.81a.63.63,0,0,1-.53.53H1.7a.53.53,0,0,1-.53-.53V27.58A.55.55,0,0,0,.59,27a.56.56,0,0,0-.59.59v1.23a1.7,1.7,0,0,0,1.7,1.7H18.25a1.78,1.78,0,0,0,1.7-1.7V.59A.55.55,0,0,0,19.37,0Z"/><path d="M.59,29.34a.55.55,0,0,0,.58-.59v-17H13.44a.59.59,0,0,0,0-1.18H1.17V5.22a.64.64,0,0,1,.53-.53H18.25a.64.64,0,0,1,.53.53.59.59,0,1,0,1.17,0,1.78,1.78,0,0,0-1.7-1.7H17.6V2.46a1.23,1.23,0,0,0-1.29-1.29h-1a1.26,1.26,0,0,0-1.24,1.29V3.52H8.22V2.41A1.21,1.21,0,0,0,7,1.17H3.58A1.21,1.21,0,0,0,2.35,2.41V3.52H1.7A1.78,1.78,0,0,0,0,5.22V28.75a.55.55,0,0,0,.59.59Zm14.67-27h1.17V3.52H15.26ZM3.52,3.52V2.35H7V3.52Z"/><path d="M.59,16.43a.55.55,0,0,0,.58-.59V14.67a.55.55,0,0,0-.58-.59.56.56,0,0,0-.59.59v1.17A.55.55,0,0,0,.59,16.43Z"/><path d="M15.84,17a.56.56,0,0,0,.59-.59v-.59H17a.55.55,0,0,0,.58-.58.55.55,0,0,0-.58-.59h-.59v-.59a.59.59,0,0,0-1.17,0v.59h-.59a.56.56,0,0,0-.59.59.55.55,0,0,0,.59.58h.59v.59A.55.55,0,0,0,15.84,17Z"/><path d="M4.11,14.67a.56.56,0,0,0-.59.59.55.55,0,0,0,.59.58H6.46A.55.55,0,0,0,7,15.26a.55.55,0,0,0-.58-.59Z"/><path d="M3.52,14.08a1.18,1.18,0,0,0-1.17,1.18v.58a.55.55,0,0,0,.58.59.55.55,0,0,0,.59-.59v-.58h.59a.59.59,0,0,0,0-1.18Z"/><path d="M16.43,15.84H14.67a.59.59,0,0,0,0,1.18h1.76a1.17,1.17,0,0,0,1.17-1.18V14.08A.55.55,0,0,0,17,13.5a.55.55,0,0,0-.59.58Z"/><path d="M17,16.43a.55.55,0,0,0,.58-.59V14.67a.55.55,0,0,0-.58-.59.56.56,0,0,0-.59.59v1.17A.56.56,0,0,0,17,16.43Z"/></g></g></svg>