<svg xmlns="http://www.w3.org/2000/svg" viewBox="0 0 17.81 18"><title>Asset 36</title><g id="Layer_2" data-name="Layer 2"><g id="Layer_1-2" data-name="Layer 1"><path d="M14.7.1H1.44A1.34,1.34,0,0,0,.1,1.44V11A1.35,1.35,0,0,0,1.44,12.3h.63v1.23a.62.62,0,0,0,.62.61h3.6v2.77a1,1,0,0,0,1,1h6.05a.16.16,0,0,0,.16-.16.16.16,0,0,0-.16-.16h-6a.67.67,0,0,1-.67-.67V14.14h4.66a.16.16,0,0,0,.16-.16.16.16,0,0,0-.16-.16H2.69a.29.29,0,0,1-.3-.29V12.3H12.85a.16.16,0,1,0,0-.32H11.14V9.59h.07a1.11,1.11,0,0,0,.85-.84V8.66h3.65V9A.16.16,0,1,0,16,9V1.44A1.34,1.34,0,0,0,14.7.1ZM10.19,3.89a.79.79,0,1,1,.79.79A.79.79,0,0,1,10.19,3.89ZM10.82,5V7.4l-.08,0h0l-.06,0-.08,0h0l-.06,0-.06,0,0,0-.07,0,0,0,0,0-.05.06,0,0,0,0,0,.07,0,0L10,8l0,.07v0s0,0,0,.08v.07l0,.08H6.25V8.23l0-.06s0,0,0-.08v0l0-.06,0-.06,0,0a.43.43,0,0,0,0-.07s0,0,0,0l0,0-.06,0,0,0,0,0-.07,0,0,0-.06,0-.08,0h0l-.08,0H5.39l-.07,0V5l.07,0h0l.06,0,.08,0,0,0,.06,0,.06,0,0,0,.07-.05,0,0,0,0L6,4.64l0,0,0-.05,0-.07,0,0,0-.06,0-.07v0a.92.92,0,0,1,0-.09v0s0,0,0,0V4.05H9.88l0,.08s0,0,0,0l0,0a.26.26,0,0,0,0,.08v0l0,0a.33.33,0,0,0,0,.06l0,0,0,.07,0,.05,0,0,.06.06,0,0,0,0,.07.05,0,0,.06,0,.07,0h0l.09,0h.07ZM5.32.42h5.5V2.8h-.08l-.2.07,0,0L10.38,3l0,0h0l-.1.08-.05.06-.08.09,0,.07a.63.63,0,0,0-.07.12l0,.06a.93.93,0,0,1,0,.13.08.08,0,0,1,0,0l0,.07H6.25l0-.07v0a.5.5,0,0,0,0-.13.13.13,0,0,0,0-.07l-.06-.11,0-.07L6,3.15l-.06-.06L5.82,3h0l0,0L5.63,2.9l0,0-.19-.06H5.32Zm.62,3.47a.79.79,0,1,1-.78-.78A.78.78,0,0,1,5.94,3.89ZM.42,1.44a1,1,0,0,1,1-1H5V2.8l-.08,0a1.1,1.1,0,0,0-.84.84l0,.07H.42Zm0,2.61H4.06l0,.08a.69.69,0,0,0,.07.2v0s0,.09.07.13l0,0,0,0a.39.39,0,0,0,.08.1s0,0,0,0l.1.08.06,0,.13.06,0,0,.13,0h0L5,5V7.41l-.08,0h0l-.13.05-.07,0-.11.06-.06,0-.1.08,0,0-.08.1,0,0,0,0L4.16,8l0,.05a.64.64,0,0,0-.06.18l0,.08H.42ZM5,12H1.44a1,1,0,0,1-1-1V8.66H4.06l0,.08a1.1,1.1,0,0,0,.84.84H5ZM4.37,8.5a.79.79,0,1,1,.79.79A.79.79,0,0,1,4.37,8.5ZM10.82,12H5.32V9.6l.07,0a.65.65,0,0,0,.21-.07h0l.13-.07,0,0,0,0,.09-.08L6,9.24l.08-.09a.43.43,0,0,0,0-.07L6.16,9l0-.05a.74.74,0,0,0,0-.14l0,0V8.66H9.89l0,.08v0a.93.93,0,0,1,0,.13L10,9a.53.53,0,0,0,.06.1.43.43,0,0,0,0,.07l.08.1s0,0,.05.05l.1.08,0,0,0,0,.13.07.05,0a.64.64,0,0,0,.18.06l.08,0ZM11,9.29a.79.79,0,1,1,.79-.79A.8.8,0,0,1,11,9.29Zm4.74-.95H12.08l0-.08a.69.69,0,0,0-.07-.2V8L11.9,7.9s0,0,0,0l0,0-.08-.1-.06,0-.09-.08-.07,0-.12-.07-.06,0-.13-.05h-.11V5h.1l.13,0,.07,0,.11-.06.07,0,.09-.08.06,0a.39.39,0,0,0,.08-.1l0,0a.05.05,0,0,0,0,0L12,4.36l0,0a.82.82,0,0,0,.06-.19l0-.08h3.64Zm0-4.61H12.07V3.66a1.09,1.09,0,0,0-.85-.84l-.07,0V.42H14.7a1,1,0,0,1,1,1Z"/><path d="M4.28,3.89A.88.88,0,1,0,5.16,3,.88.88,0,0,0,4.28,3.89Zm.88-.69a.69.69,0,1,1-.69.69A.69.69,0,0,1,5.16,3.2Z"/><path d="M10.7,4.86h0l-.06,0h0l0,0h0l0,0,0,0,0,0,0,0h0l0,0,0,0v0l0,0h0l0,0,0,0h0v0l0,0,0,0a.14.14,0,0,1,0-.06v0h0l0,0v0l0,0v0l0,0v0L10,4H6.18l0,.15a0,0,0,0,1,0,0V4.2l0,0v.07h0v0l0,.06,0,0,0,0v0H6l0,0,0,0h0l0,0v0l0,0,0,0h0l0,0,0,0,0,0,0,0h0l0,0h0l-.06,0H5.37l-.15,0V7.48l.15,0h0l0,0h0l.06,0h.1l0,0,0,0,0,0h0l0,0,0,0h0l0,0h0l0,0,0,0v0L6,8,6,8l0,0v.07h0v0s0,0,0,.06v.06a0,0,0,0,1,0,0l0,.15H10l0-.15a0,0,0,0,0,0,0l0,0v0l0-.06v0h0l0,0h0V8s0,0,0,0l0,0v0l0,0v0l0,0,0,0h0l0,0h0l0,0,0,0h0l0,0,0,0,0,0h.1l.06,0h0l0,0h0l.16,0V4.91l-.16,0H10.7Zm0,2.47-.07,0-.1,0h0l0,0h0l-.09,0,0,0-.06,0a.18.18,0,0,1-.07,0l0,0-.05,0,0,.05L10,7.79l0,.06,0,0L9.9,8h0l0,0v0l0,.1a.19.19,0,0,0,0,.07H6.33a.31.31,0,0,0,0-.08l0-.09V8l0,0h0a.36.36,0,0,0,0-.09l0,0,0-.06,0-.06,0-.05,0,0-.05,0-.06,0-.06,0,0,0-.09,0h0l0,0h0l-.1,0-.08,0V5.07l.08,0a.38.38,0,0,0,.1,0h0l0,0h0l.09,0,0,0,.06,0,.06-.05.05,0,0,0,0,0,0-.07,0,0,0,0a.56.56,0,0,0,0-.08v0l0-.05v0l0-.09a.24.24,0,0,0,0-.08H9.81a.24.24,0,0,0,0,.08l0,.09v0l0,.05v0a.56.56,0,0,0,0,.08l0,0a.1.1,0,0,1,0,0l.05.07,0,0,.05,0s0,0,.05,0l.06.05.06,0,0,0,.09,0h0l0,0h0a.29.29,0,0,0,.1,0l.07,0Z"/><path d="M5.55,3h0l.13.07,0,0,0,0,.09.07s0,0,.05,0L6,3.3l0,.06a.47.47,0,0,1,0,.1v0a.08.08,0,0,1,0,0,.56.56,0,0,1,0,.12s0,0,0,0l0,.15H10l0-.15a.08.08,0,0,1,0,0l0-.12,0,0v0l.06-.1a.21.21,0,0,1,0-.06l.07-.09s0,0,0,0l.09-.07,0,0,0,0L10.55,3l0,0,.17,0,.16,0V.32H5.22V2.88l.15,0A.64.64,0,0,1,5.55,3ZM5.41.51h5.31V2.72a1.17,1.17,0,0,0-.2.06l0,0-.14.08-.07,0-.1.09-.06.06L10,3.19l0,.07-.06.12,0,.07s0,.1,0,.15,0,0,0,0H6.33s0,0,0,0a.88.88,0,0,0-.05-.15l0-.07a.75.75,0,0,0-.07-.12.18.18,0,0,0,0-.07A.76.76,0,0,0,6,3.08L6,3l-.11-.09-.06,0-.14-.08,0,0a1.29,1.29,0,0,0-.21-.06Z"/><path d="M10.1,3.89A.88.88,0,1,0,11,3,.88.88,0,0,0,10.1,3.89ZM11,3.2a.69.69,0,1,1-.69.69A.69.69,0,0,1,11,3.2Z"/><path d="M10.58,9.43l0,0a.35.35,0,0,1-.12-.07l0,0,0,0-.09-.07,0-.05-.07-.09a.21.21,0,0,1,0-.06l-.06-.1h0l0-.05,0-.12s0,0,0,0l0-.15H6.17l0,.16v0a.56.56,0,0,1,0,.12s0,0,0,.05h0A.31.31,0,0,1,6,9l0,.06-.07.09-.05.05-.09.07,0,0,0,0a.4.4,0,0,1-.13.07l0,0-.17.06-.15,0v2.56h5.7V9.52l-.16,0Zm.14,2.45H5.41V9.67a.73.73,0,0,0,.21-.06l0,0,.14-.07.06,0L6,9.37,6,9.31l.08-.1,0-.07A.75.75,0,0,0,6.24,9l0-.08a.78.78,0,0,0,.05-.14s0,0,0,0H9.81s0,0,0,0,0,.09,0,.14,0,.05,0,.08l.06.12a.18.18,0,0,1,0,.07l.09.1.06.06.1.09.07,0,.14.07,0,0a.66.66,0,0,0,.2.06Z"/><path d="M4,3.83h.15l0-.15a1,1,0,0,1,.77-.77l.16,0V.32H1.44A1.12,1.12,0,0,0,.32,1.44V3.83H4ZM.51,1.44A.93.93,0,0,1,1.44.51H4.9V2.72A1.21,1.21,0,0,0,4,3.64H.51Z"/><path d="M14.7.32H11V2.88l.15,0a1,1,0,0,1,.77.77l0,.15h3.82V1.44A1.12,1.12,0,0,0,14.7.32Zm.93,3.32H12.15a1.21,1.21,0,0,0-.91-.92V.51H14.7a.93.93,0,0,1,.93.93Z"/><path d="M12.15,4H12l0,.15a.94.94,0,0,1-.06.18v0l-.07.12,0,0,0,0-.07.09-.05,0-.09.07-.06,0-.1.06h0l-.05,0-.12,0h0l-.15,0V7.48l.15,0h0l.12,0,0,0h0l.1.06.06,0,.09.07.05,0,.07.09,0,0,0,0,.07.12a.05.05,0,0,0,0,0,1.21,1.21,0,0,1,.05.18l0,.15h3.82V4H12.15Zm3.48,4.28H12.15a.76.76,0,0,0-.06-.2l0,0A.61.61,0,0,0,12,7.85a.18.18,0,0,1-.05-.07l-.09-.1-.06-.06-.1-.09-.07,0-.12-.07-.08,0-.14,0h0V5.07l0,0,.14,0,.08,0,.12-.06.07,0,.1-.09.06,0,.09-.11L12,4.55a1,1,0,0,0,.07-.15l0-.05a.66.66,0,0,0,.06-.2h3.48Z"/><path d="M14.7,0H1.44A1.45,1.45,0,0,0,0,1.44V11a1.44,1.44,0,0,0,1.44,1.44H2v1.14a.7.7,0,0,0,.7.7H6.19v2.68A1.09,1.09,0,0,0,7.28,18h6.05a.26.26,0,0,0,0-.51h-6a.58.58,0,0,1-.58-.58V14.23h4.57a.26.26,0,0,0,.26-.25.26.26,0,0,0-.26-.26H2.68a.2.2,0,0,1-.19-.19V12.39H12.85a.25.25,0,0,0,.25-.25.26.26,0,0,0-.25-.26H11.24V9.67a1.21,1.21,0,0,0,.91-.91h3.48V9a.26.26,0,0,0,.25.26A.26.26,0,0,0,16.14,9V1.44A1.45,1.45,0,0,0,14.7,0Zm1.24,3.89V9a.05.05,0,0,1-.06.06A.06.06,0,0,1,15.82,9V8.56H12l0,.15a1,1,0,0,1-.77.77l-.15,0v2.56h1.81a.06.06,0,0,1,.06.06.06.06,0,0,1-.06.06H2.3v1.33a.38.38,0,0,0,.38.38h8.59a.07.07,0,0,1,.06.07.06.06,0,0,1-.06.06H6.51v2.87a.78.78,0,0,0,.77.77h6.05a.06.06,0,0,1,.06.06.07.07,0,0,1-.06.07h-6a.91.91,0,0,1-.9-.9V14H2.68a.51.51,0,0,1-.51-.51V12.2H1.44A1.25,1.25,0,0,1,.19,11V1.44A1.25,1.25,0,0,1,1.44.19H14.7a1.25,1.25,0,0,1,1.24,1.25Z"/><path d="M11,7.62a.88.88,0,1,0,.88.88A.87.87,0,0,0,11,7.62Zm0,1.57a.69.69,0,1,1,.69-.69A.69.69,0,0,1,11,9.19Z"/><path d="M4,8.44h.16l0-.15a1.27,1.27,0,0,1,.06-.18l0,0A1.34,1.34,0,0,1,4.31,8l0,0v0l.08-.09.05,0,.09-.07s0,0,.06,0l.1-.06h0l0,0,.12,0h0l.16,0V4.91l-.16,0h0l-.12,0,0,0h0l-.1-.06a.13.13,0,0,1-.06,0l-.09-.07a.12.12,0,0,1-.05,0l-.08-.09v0l0,0a.67.67,0,0,1-.06-.12l0,0a1.77,1.77,0,0,1-.06-.17l0-.15H.32V8.44H4ZM.51,4.15H4a1.18,1.18,0,0,0,.07.2.17.17,0,0,1,0,.05l.08.15,0,.06.09.11.06,0,.1.09.07,0L4.64,5l.08,0,.14,0,0,0V7.33h0l-.14,0-.08,0-.12.07-.07,0-.1.09-.06.06-.09.11,0,.06s-.05.09-.08.14,0,0,0,0a1.59,1.59,0,0,0-.07.2H.51Z"/><path d="M4.17,8.71l0-.15H.32V11a1.13,1.13,0,0,0,1.12,1.13H5.1V9.52l-.16,0A1,1,0,0,1,4.17,8.71Zm.73,3.17H1.44A.93.93,0,0,1,.51,11V8.76H4a1.21,1.21,0,0,0,.91.91Z"/><path d="M6,8.5a.88.88,0,1,0-.88.88A.87.87,0,0,0,6,8.5Zm-.88.69a.69.69,0,1,1,.69-.69A.69.69,0,0,1,5.16,9.19Z"/><path d="M9.86,8.07l0,.1a.19.19,0,0,0,0,.07H6.33a.31.31,0,0,0,0-.08l0-.09V8l0,0h0a.36.36,0,0,0,0-.09l0,0,0-.06,0-.06,0-.05,0,0-.05,0-.06,0-.06,0,0,0-.09,0h0l0,.09h0l.06,0,0,0,0,0h0l0,0,0,0h0l0,0v0l0,0,0,0,0,0v0s0,0,0,0l0,0,0,.06V8h0v.05h0v0l0,.06v.17H9.88l0-.08V8.17l0-.06v0h0V8L9.9,8l0,0Z"/><path d="M10.54,7.49h0l.07,0h.09l.08,0V5l-.08,0h-.09l-.07,0h-.07l0,.09,0,0h0a.29.29,0,0,0,.1,0l.07,0V7.33l-.07,0-.1,0h0l0,0h0l0,.08Z"/><path d="M10.33,7.49l-.06,0a.18.18,0,0,1-.07,0l0,0-.05,0,0,.05L10,7.79l0,.06,0,0L9.9,8h0L10,8V8l0-.06,0,0,0,0v0l0,0,0,0v0l0,0h0l0,0,0,0h0l0,0,0,0,.06,0h0l0-.09-.09,0Z"/><path d="M5.59,7.38l-.1,0-.08,0V5.07l.08,0a.38.38,0,0,0,.1,0h0l0,0h0l0-.08H5.55l-.06,0h-.1L5.32,5V7.4l.07,0h.1l.06,0h.08l0-.08,0,0Z"/><path d="M5.81,4.9l.06,0,.06-.05.05,0,0,0,0,0,0-.07,0,0,0,0a.56.56,0,0,0,0-.08v0l-.09,0v0l0,.07,0,0,0,0h0l0,0,0,.05,0,0H6l0,0v0l0,0,0,0h0l0,0,0,0-.06,0h0l0,.09.09,0Z"/><path d="M10,4.55a.1.1,0,0,1,0,0l.05.07,0,0,.05,0s0,0,.05,0l.06.05.06,0,0,0,.09,0h0l0-.1h0l-.06,0,0,0,0,0,0,0h0l0,0,0,0,0,0,0,0h0l0,0,0-.05v0h0l0,0,0,0,0-.07v0l-.09,0a.56.56,0,0,0,0,.08Z"/><path d="M10.19,3.89A.79.79,0,1,0,11,3.11.79.79,0,0,0,10.19,3.89ZM11,3.2a.69.69,0,1,1-.69.69A.69.69,0,0,1,11,3.2Z"/><path d="M6.28,4.32l0-.09a.24.24,0,0,0,0-.08H9.81a.24.24,0,0,0,0,.08l0,.09v0l0,.05v0L10,4.36V4.3h0s0,0,0-.07v0s0,0,0,0l0-.08H6.25v.08s0,0,0,0v0a.64.64,0,0,1,0,.07h0v0h0v0l.08,0,0-.05Z"/><path d="M4,3.73h.07l0-.07a1.1,1.1,0,0,1,.84-.84L5,2.8V.42H1.44a1,1,0,0,0-1,1V3.73H4ZM.51,1.44A.93.93,0,0,1,1.44.51H4.9V2.72A1.21,1.21,0,0,0,4,3.64H.51Z"/><path d="M4,8.34h.08l0-.08a.64.64,0,0,1,.06-.18V8l.07-.13,0,0,0,0,.08-.1,0,0,.1-.08.06,0,.11-.06h0l0,0,.13-.05H5V5L4.92,5h0l-.13,0,0,0h0l-.11-.06-.06,0-.1-.08s0,0,0,0a.39.39,0,0,1-.08-.1l0,0,0,0-.07-.13v0h0a.82.82,0,0,1-.06-.19l0-.08H.42V8.34H4ZM.51,4.15H4a1.18,1.18,0,0,0,.07.2.17.17,0,0,1,0,.05l.08.15,0,.06.09.11.06,0,.1.09.07,0L4.64,5l.08,0,.14,0,0,0V7.33h0l-.14,0-.08,0-.12.07-.07,0-.1.09-.06.06-.09.11,0,.06s-.05.09-.08.14,0,0,0,0a1.59,1.59,0,0,0-.07.2H.51Z"/><path d="M4.08,8.74l0-.08H.42V11a1,1,0,0,0,1,1H5V9.59H4.92A1.1,1.1,0,0,1,4.08,8.74Zm.82,3.14H1.44A.93.93,0,0,1,.51,11V8.76H4a1.21,1.21,0,0,0,.91.91Z"/><path d="M12.15,4.05h-.07l0,.08a.82.82,0,0,1-.06.19h0v0a.49.49,0,0,1-.08.13.05.05,0,0,1,0,0l0,0a.39.39,0,0,1-.08.1l-.06,0-.09.08-.07,0-.11.06h0l-.06,0-.13,0h0l-.07,0V7.41h.11l.13.05.06,0h0l.11.06.07,0,.09.08.06,0,.08.1,0,0s0,0,0,0L12,8v.05a.64.64,0,0,1,.06.18l0,.08h3.64V4.05H12.15Zm3.48,4.19H12.15a.76.76,0,0,0-.06-.2l0,0A.61.61,0,0,0,12,7.85a.18.18,0,0,1-.05-.07l-.09-.1-.06-.06-.1-.09-.07,0-.12-.07-.08,0-.14,0h0V5.07l0,0,.14,0,.08,0,.12-.06.07,0,.1-.09.06,0,.09-.11L12,4.55a1,1,0,0,0,.07-.15l0-.05a.66.66,0,0,0,.06-.2h3.48Z"/><path d="M11,7.71a.79.79,0,1,0,.79.79A.8.8,0,0,0,11,7.71Zm0,1.48a.69.69,0,1,1,.69-.69A.69.69,0,0,1,11,9.19Z"/><path d="M5.94,8.5a.79.79,0,1,0-.78.79A.79.79,0,0,0,5.94,8.5Zm-.78.69a.69.69,0,1,1,.69-.69A.69.69,0,0,1,5.16,9.19Z"/><path d="M5.58,2.87h0l0,0L5.76,3l0,0h0l.09.08L6,3.15l.08.09,0,.07.06.11h0a.14.14,0,0,1,0,.06.65.65,0,0,1,0,.13v0h0v.07H9.88l0-.07h0v0l0-.13,0-.06h0a.39.39,0,0,1,.06-.11l0-.07.08-.09.05-.06.1-.08h0l0,0,.13-.07,0,0h0l.18-.06h.08V.42H5.32V2.8h.07ZM5.41.51h5.31V2.72a1.17,1.17,0,0,0-.2.06l0,0-.14.08-.07,0-.1.09-.06.06L10,3.19l0,.07-.06.12,0,.07s0,.1,0,.15,0,0,0,0H6.33s0,0,0,0a.88.88,0,0,0-.05-.15l0-.07a.75.75,0,0,0-.07-.12.18.18,0,0,0,0-.07A.76.76,0,0,0,6,3.08L6,3l-.11-.09-.06,0-.14-.08,0,0a1.29,1.29,0,0,0-.21-.06Z"/><path d="M4.37,3.89a.79.79,0,1,0,.79-.78A.79.79,0,0,0,4.37,3.89Zm.79-.69a.69.69,0,1,1-.69.69A.69.69,0,0,1,5.16,3.2Z"/><path d="M14.7,0H1.44A1.45,1.45,0,0,0,0,1.44V11a1.44,1.44,0,0,0,1.44,1.44H2v1.14a.7.7,0,0,0,.7.7H6.19v2.68A1.09,1.09,0,0,0,7.28,18h6.05a.26.26,0,0,0,0-.51h-6a.58.58,0,0,1-.58-.58V14.23h4.57a.26.26,0,0,0,.26-.25.26.26,0,0,0-.26-.26H2.68a.2.2,0,0,1-.19-.19V12.39H12.85a.25.25,0,0,0,.25-.25.26.26,0,0,0-.25-.26H11.24V9.67a1.21,1.21,0,0,0,.91-.91h3.48V9a.26.26,0,0,0,.25.26A.26.26,0,0,0,16.14,9V1.44A1.45,1.45,0,0,0,14.7,0ZM16,3.89V9a.16.16,0,1,1-.32,0V8.66H12.07v.08a1.09,1.09,0,0,1-.85.84h-.07V12h1.71a.16.16,0,1,1,0,.32H2.39v1.23a.29.29,0,0,0,.29.29h8.59a.16.16,0,0,1,.16.16.16.16,0,0,1-.16.16H6.61v2.77a.67.67,0,0,0,.67.67h6.05a.16.16,0,0,1,.16.16.16.16,0,0,1-.16.16h-6a1,1,0,0,1-1-1V14.14H2.68a.62.62,0,0,1-.61-.61V12.3H1.44A1.35,1.35,0,0,1,.1,11V1.44A1.34,1.34,0,0,1,1.44.1H14.7A1.34,1.34,0,0,1,16,1.44Z"/><path d="M10.56,9.52h-.05l-.13-.07,0,0,0,0-.1-.08-.05-.06-.08-.09a.43.43,0,0,1,0-.07A.53.53,0,0,1,10,9V9l0-.05c0-.05,0-.1,0-.14v0h0l0-.08H6.25v.08h0v0a1,1,0,0,1,0,.14l0,.05V9l-.06.1a.43.43,0,0,1,0,.07L6,9.24l-.06.06-.09.08,0,0,0,0-.13.07h0a.6.6,0,0,1-.19.06l-.07,0V12h5.5V9.6l-.08,0A.64.64,0,0,1,10.56,9.52Zm.16,2.36H5.41V9.67a.73.73,0,0,0,.21-.06l0,0,.14-.07.06,0L6,9.37,6,9.31l.08-.1,0-.07A.75.75,0,0,0,6.24,9l0-.08a.78.78,0,0,0,.05-.14s0,0,0,0H9.81s0,0,0,0,0,.09,0,.14,0,.05,0,.08l.06.12a.18.18,0,0,1,0,.07l.09.1.06.06.1.09.07,0,.14.07,0,0a.66.66,0,0,0,.2.06Z"/><path d="M14.7.42H11.14V2.8l.07,0a1.09,1.09,0,0,1,.85.84v.07h3.65V1.44A1,1,0,0,0,14.7.42Zm.93,3.22H12.15a1.21,1.21,0,0,0-.91-.92V.51H14.7a.93.93,0,0,1,.93.93Z"/><path d="M14,16a.16.16,0,0,0,.16.16h2a.16.16,0,0,0,.16-.16.16.16,0,0,0-.16-.15h-2A.16.16,0,0,0,14,16Z"/><path d="M17.07,10.88h-.4v-.43a.4.4,0,0,0-.4-.4H14.14a.4.4,0,0,0-.41.4v.43h-.4a.64.64,0,0,0-.64.64v5.74a.64.64,0,0,0,.64.64h3.74a.64.64,0,0,0,.64-.64V11.52A.64.64,0,0,0,17.07,10.88Zm.32,2.85H16.2a.16.16,0,0,0-.16.16.16.16,0,0,0,.16.16h1.19v3.21a.32.32,0,0,1-.32.32H13.33a.32.32,0,0,1-.32-.32V14.05H14.2a.16.16,0,0,0,.16-.16.16.16,0,0,0-.16-.16H13V11.52a.32.32,0,0,1,.32-.32h.56a.16.16,0,0,0,.16-.15v-.68l2.31,0V11a.16.16,0,0,0,.16.16h.56a.32.32,0,0,1,.32.32Z"/><path d="M16.12,12.37h-.76v-.75a.16.16,0,0,0-.32,0v.75h-.75a.16.16,0,0,0,0,.32H15v.76a.16.16,0,0,0,.32,0v-.76h.76a.16.16,0,0,0,0-.32Z"/><path d="M14,16a.25.25,0,0,0,.25.26h2a.26.26,0,0,0,0-.51h-2A.25.25,0,0,0,14,16Zm2.31,0a.07.07,0,0,1-.06.07h-2a.07.07,0,0,1-.06-.07.06.06,0,0,1,.06-.06h2A.06.06,0,0,1,16.26,16Z"/><path d="M17.07,11.11h-.56a.07.07,0,0,1-.07-.07v-.78h-2.5v.2L14,11a.07.07,0,0,1-.07.07h-.56a.41.41,0,0,0-.42.41v2.3H14.2s.06,0,.06.07a.06.06,0,0,1-.06.06H12.91v3.31a.42.42,0,0,0,.42.42h3.74a.42.42,0,0,0,.42-.42V14H16.2a.06.06,0,0,1-.06-.06s0-.07.06-.07h1.29v-2.3A.41.41,0,0,0,17.07,11.11Zm.23,2.52H16.2a.26.26,0,0,0-.26.26.26.26,0,0,0,.26.25h1.1v3.12a.23.23,0,0,1-.23.23H13.33a.23.23,0,0,1-.23-.23V14.14h1.1a.26.26,0,0,0,.26-.25.26.26,0,0,0-.26-.26H13.1V11.52a.22.22,0,0,1,.23-.22h.56a.26.26,0,0,0,.26-.26v-.58h2.11V11a.26.26,0,0,0,.26.26h.56a.22.22,0,0,1,.23.22Z"/><path d="M16.12,12.28h-.66v-.66a.26.26,0,1,0-.52,0v.66h-.65a.25.25,0,0,0-.26.25.26.26,0,0,0,.26.26h.65v.66a.26.26,0,0,0,.52,0v-.66h.66a.26.26,0,0,0,.25-.26A.25.25,0,0,0,16.12,12.28Zm0,.31h-.86v.86a.06.06,0,0,1-.12,0v-.86h-.85s-.07,0-.07-.06a.07.07,0,0,1,.07-.06h.85v-.85a.06.06,0,1,1,.12,0v.85h.86a.06.06,0,0,1,.06.06A.06.06,0,0,1,16.12,12.59Z"/><path d="M17.07,10.79h-.31v-.34a.5.5,0,0,0-.49-.5H14.14a.5.5,0,0,0-.5.5v.34h-.31a.74.74,0,0,0-.74.73v5.74a.74.74,0,0,0,.74.74h3.74a.74.74,0,0,0,.74-.74V11.52A.74.74,0,0,0,17.07,10.79Zm.54,6.47a.55.55,0,0,1-.54.55H13.33a.55.55,0,0,1-.54-.55V11.52a.54.54,0,0,1,.54-.54h.5v-.53a.3.3,0,0,1,.31-.3h2.13a.3.3,0,0,1,.3.3V11h.5a.54.54,0,0,1,.54.54Z"/><path d="M14,16a.25.25,0,0,0,.25.26h2a.26.26,0,0,0,0-.51h-2A.25.25,0,0,0,14,16Zm2.41,0a.16.16,0,0,1-.16.16h-2A.16.16,0,0,1,14,16a.16.16,0,0,1,.16-.15h2A.16.16,0,0,1,16.36,16Z"/><path d="M17.07,10.79h-.31v-.34a.5.5,0,0,0-.49-.5H14.14a.5.5,0,0,0-.5.5v.34h-.31a.74.74,0,0,0-.74.73v5.74a.74.74,0,0,0,.74.74h3.74a.74.74,0,0,0,.74-.74V11.52A.74.74,0,0,0,17.07,10.79Zm.64,6.47a.64.64,0,0,1-.64.64H13.33a.64.64,0,0,1-.64-.64V11.52a.64.64,0,0,1,.64-.64h.4v-.43a.4.4,0,0,1,.41-.4h2.13a.4.4,0,0,1,.4.4v.43h.4a.64.64,0,0,1,.64.64Z"/><path d="M16.12,12.28h-.66v-.66a.26.26,0,1,0-.52,0v.66h-.65a.25.25,0,0,0-.26.25.26.26,0,0,0,.26.26h.65v.66a.26.26,0,0,0,.52,0v-.66h.66a.26.26,0,0,0,.25-.26A.25.25,0,0,0,16.12,12.28Zm0,.41h-.76v.76a.16.16,0,0,1-.32,0v-.76h-.75a.16.16,0,0,1,0-.32H15v-.75a.16.16,0,0,1,.32,0v.75h.76a.16.16,0,0,1,0,.32Z"/><path d="M17.07,11.2h-.56a.16.16,0,0,1-.16-.16v-.69h-.1l-2.12,0H14V11a.16.16,0,0,1-.16.16h-.56a.32.32,0,0,0-.32.32v2.21H14.2a.16.16,0,0,1,.16.16.16.16,0,0,1-.16.16H13v3.21a.32.32,0,0,0,.32.32h3.74a.32.32,0,0,0,.32-.32V14.05H16.2a.16.16,0,0,1-.16-.16.16.16,0,0,1,.16-.16h1.19V11.52A.32.32,0,0,0,17.07,11.2Zm.23,2.43H16.2a.26.26,0,0,0-.26.26.26.26,0,0,0,.26.25h1.1v3.12a.23.23,0,0,1-.23.23H13.33a.23.23,0,0,1-.23-.23V14.14h1.1a.26.26,0,0,0,.26-.25.26.26,0,0,0-.26-.26H13.1V11.52a.22.22,0,0,1,.23-.22h.56a.26.26,0,0,0,.26-.26v-.58h2.11V11a.26.26,0,0,0,.26.26h.56a.22.22,0,0,1,.23.22Z"/></g></g></svg>