<svg xmlns="http://www.w3.org/2000/svg" viewBox="0 0 28.42 34"><title>Asset 37</title><g id="Layer_2" data-name="Layer 2"><g id="Layer_1-2" data-name="Layer 1"><path d="M.57,20.65a.56.56,0,0,0-.57.56v4.24A.56.56,0,0,0,.57,26H4.23v2.8A1.76,1.76,0,0,0,6,30.57H7.66l.46,1.85a2.06,2.06,0,0,0,2,1.58H22.52a2.08,2.08,0,0,0,2-1.58L25,30.57h1.67a1.76,1.76,0,0,0,1.76-1.76v-27A1.76,1.76,0,0,0,26.66,0H6A1.76,1.76,0,0,0,4.23,1.76V3.88H.57A.57.57,0,0,0,0,4.45V8.68a.56.56,0,0,0,.57.57H4.23v11.4Zm.56,4.23v-3.1h3.1v3.1Zm22.3,7.27a.93.93,0,0,1-.91.72H10.13a.93.93,0,0,1-.91-.72l-.39-1.58h15ZM5.37,1.76A.63.63,0,0,1,6,1.13H26.66a.64.64,0,0,1,.63.63V28.81a.64.64,0,0,1-.63.63H6a.63.63,0,0,1-.62-.63v-27ZM1.13,8.12V5h3.1v3.1Z"/><path d="M13.07,15.81a.58.58,0,0,0,.4-.17l5.89-5.89a.57.57,0,0,0,.13-.62A.58.58,0,0,0,19,8.78H15.43l3.93-3.93a.57.57,0,1,0-.8-.8L13.66,9a.55.55,0,0,0-.12.61.56.56,0,0,0,.53.35h3.52l-4.92,4.93a.57.57,0,0,0,0,.8A.56.56,0,0,0,13.07,15.81Z"/><path d="M9.47,27.25H23.18a.57.57,0,0,0,.57-.56v-7a.57.57,0,0,0-.57-.56H9.47a.57.57,0,0,0-.57.56v7A.57.57,0,0,0,9.47,27.25Zm.57-7H22.61v5.83H10Z"/><path d="M22.39,3.35h2.28V7a.57.57,0,0,0,1.14,0V2.78a.58.58,0,0,0-.57-.57H22.39a.57.57,0,0,0,0,1.14Z"/></g></g></svg>