<svg xmlns="http://www.w3.org/2000/svg" viewBox="0 0 40.05 38.91"><title>Asset 25</title><g id="Layer_2" data-name="Layer 2"><g id="Layer_1-2" data-name="Layer 1"><path d="M33.24,30l.74,1,.56-.43a1,1,0,0,1,1.44.17c1.29,1.62,2.56,3.25,3.83,4.89A1,1,0,0,1,39.64,37c-.71.58-1.43,1.14-2.16,1.69A1,1,0,0,1,36,38.49l-3.78-4.83a1,1,0,0,1,.19-1.54l.51-.4-.69-.89a8.4,8.4,0,0,1-3.42,1.54c-.28.06-.22.26-.23.44a2,2,0,0,1-1.56,2,2.59,2.59,0,0,1-.56,0q-10.53,0-21.06,0a2,2,0,0,1-2.12-2.11V31.67H2.12A2,2,0,0,1,0,29.52V2.16A2,2,0,0,1,2.16,0h21a2,2,0,0,1,2.15,2.17V3.22h1.2a2,2,0,0,1,2.13,2.13c0,3.22,0,6.43,0,9.65,0,.46.11.63.57.74a8.52,8.52,0,0,1,4.33,13.91Zm-6,2.59h-.22a8.27,8.27,0,0,1-5.89-2.4.9.9,0,0,0-.67-.27H7.61c-.66,0-1-.21-1-.65s.32-.65,1-.65H19.79L18.71,26H7.36a.65.65,0,0,1-.71-.62.67.67,0,0,1,.67-.67c.12,0,.24,0,.36,0H18.52l.18-2.59H7.62a2.67,2.67,0,0,1-.4,0,.62.62,0,0,1-.56-.63.61.61,0,0,1,.52-.63,1.61,1.61,0,0,1,.44,0c3.6,0,7.21,0,10.81,0a.92.92,0,0,0,1-.61,18,18,0,0,1,1.22-2H17.75c-.48,0-.76-.29-.72-.71s.29-.57.74-.57h4.15a1.31,1.31,0,0,0,.64-.18,8.26,8.26,0,0,1,2.83-1.12c.63-.11,1.27-.16,1.91-.24a.8.8,0,0,0,0-.15v-10c0-.55-.25-.77-.82-.77H5.45c-.6,0-.84.23-.84.82V32.74c0,.61.23.84.82.84H26.5C27.16,33.58,27.41,33.26,27.27,32.56ZM3.32,30.37v-.56c0-8.11,0-16.22,0-24.33A2.15,2.15,0,0,1,5.57,3.2c6,0,11.94,0,17.91,0H24V2.29c0-.82-.18-1-1-1H2.31c-.84,0-1,.18-1,1V29.67a.65.65,0,0,0,.67.7C2.39,30.39,2.82,30.37,3.32,30.37ZM27.1,16.74A7.27,7.27,0,1,0,34.36,24,7.24,7.24,0,0,0,27.1,16.74Zm9.82,20.75,1.72-1.35-3.5-4.48L33.4,33c1.1,1.41,2.18,2.78,3.25,4.16Z"/><path d="M15.43,13.57c0,.95,0,1.89,0,2.83a1.71,1.71,0,0,1-1.84,1.84H8.47a1.71,1.71,0,0,1-1.82-1.78c0-1.94,0-3.88,0-5.81A1.7,1.7,0,0,1,8.47,8.88c1.73,0,3.45,0,5.17,0a1.68,1.68,0,0,1,1.79,1.79C15.44,11.64,15.43,12.61,15.43,13.57Zm-1.29,0V10.81c0-.54-.1-.64-.63-.64H8.59c-.53,0-.65.11-.65.63q0,2.76,0,5.52c0,.49.13.62.62.62h5c.5,0,.62-.11.62-.61C14.15,15.4,14.14,14.48,14.14,13.55Z"/><path d="M21.26,13.06h3.42c.51,0,.81.24.81.64s-.3.65-.8.65H17.8c-.5,0-.79-.25-.78-.66s.28-.62.78-.63Z"/><path d="M21.24,9.18h3.55c.29,0,.57.09.63.39a.94.94,0,0,1-.12.66.78.78,0,0,1-.56.23h-7c-.48,0-.75-.28-.74-.68s.28-.61.75-.61Z"/><path d="M32.89,24a5.79,5.79,0,1,1-5.79-5.79A5.78,5.78,0,0,1,32.89,24Zm-1.3,0a4.5,4.5,0,1,0-4.48,4.48A4.46,4.46,0,0,0,31.59,24Z"/><path d="M27.12,20.53a3.49,3.49,0,0,1,3.38,2.53.7.7,0,0,1-.28.88c-.39.22-.8,0-.95-.49a2.12,2.12,0,0,0-1.94-1.61,4.58,4.58,0,0,0-.64,0,.64.64,0,1,1-.15-1.28C26.75,20.56,27,20.55,27.12,20.53Z"/></g></g></svg>