<svg xmlns="http://www.w3.org/2000/svg" viewBox="0 0 40.69 38.91"><title>Asset 26</title><g id="Layer_2" data-name="Layer 2"><g id="Layer_1-2" data-name="Layer 1"><path d="M40.69,13.58c-.27.33-.51.69-.81,1-.81.84-1.64,1.65-2.47,2.48a1.35,1.35,0,0,1-2.14,0,21.33,21.33,0,0,1-3.16-3.81.53.53,0,0,0-.66-.26,3.61,3.61,0,0,1-2.23.06.31.31,0,0,0-.27.08l-4.79,5a2,2,0,0,1,.43.25L39.32,33.1a1.08,1.08,0,0,1,.41,1.19,1.49,1.49,0,0,1-.37.55q-1.78,1.81-3.59,3.6a1.07,1.07,0,0,1-1.77,0L19.42,23.85c-.11-.11-.21-.24-.4-.45a3.84,3.84,0,0,1-.3.43L5.52,37.66a1.67,1.67,0,0,1-1.73.62,2.34,2.34,0,0,1-.94-.54C2.09,37,1.36,36.27.62,35.53a1.71,1.71,0,0,1,.05-2.68l7.12-6.8,6.79-6.48a2.49,2.49,0,0,1,.32-.22l-.39-.4-6.6-6.61c-.44-.44-.51-.76-.23-1.05s.63-.23,1.08.22l2.14,2.15c.37-.39.7-.78,1.08-1.12a.94.94,0,0,1,.62-.25.56.56,0,0,1,.29,1c-.37.39-.78.75-1.14,1.09l6.43,6.44c.31-.32.65-.68,1-1s.7-.39,1-.11.22.6-.13.94-.73.69-1.07,1l6.45,6.44c.31-.32.64-.68,1-1s.69-.41,1-.14.24.61-.12,1-.7.68-1,1l6.43,6.43c.31-.33.67-.74,1.07-1.09A.89.89,0,0,1,34.4,34a.6.6,0,0,1,.35.45.93.93,0,0,1-.26.59c-.33.37-.71.7-1.05,1l1.43,1.41L37,35.42,4.37,2.82,2.3,4.89,3.75,6.35l1-1c.36-.37.69-.41,1-.14s.24.6-.12,1-.7.69-1.07,1l.31.34c.66.66,1.32,1.31,2,2a.58.58,0,0,1,0,.88.6.6,0,0,1-.89-.05C4.35,8.79,2.77,7.21,1.21,5.63a1,1,0,0,1,0-1.45Q3.14,2.25,5.07.33a1,1,0,0,1,1.57.1l8.85,8.85L20,13.77a2.94,2.94,0,0,1,.26.39l5-4.75a1.5,1.5,0,0,0-.11-.22,1.61,1.61,0,0,1,.24-2c.52-.55,1.07-1.07,1.6-1.61.35-.36.35-.56,0-.89a3.25,3.25,0,0,0-3.38-.62,1.1,1.1,0,0,1-1.43-.34L22,3.63c-.8-.79-.77-1.13.16-1.81a6.41,6.41,0,0,1,8.35.65c1,.92,1.9,1.88,2.84,2.83.33.33.37.69.12.94s-.62.24-1-.11c-.93-.92-1.85-1.86-2.79-2.78a5.23,5.23,0,0,0-6.39-.87l-.45.3,0,.12a2.7,2.7,0,0,0,.41,0,4.55,4.55,0,0,1,4.44,1,1.6,1.6,0,0,1,.11,2.47c-.51.53-1,1-1.55,1.55-.37.38-.37.55,0,.93L29,11.5a1.56,1.56,0,0,0,1.53.45l1.17-.21a.55.55,0,0,0,.24-.12L35,8.56c-.22-.2-.44-.37-.63-.57a.58.58,0,0,1,0-.88.6.6,0,0,1,.85,0,6.55,6.55,0,0,1,.64.65c.12.14.28.32.27.47-.08.66.42.88.83,1.16A16.35,16.35,0,0,1,40,12c.25.28.46.61.69.91ZM5.28,1.84,37.91,34.49l.54-.43L5.76,1.36Zm30.22,8L33,12.37a.13.13,0,0,0,0,.05,20.88,20.88,0,0,0,3.14,3.81c.2.17.3.13.46,0,.8-.81,1.6-1.61,2.41-2.41a5.37,5.37,0,0,1,.59-.42A18.4,18.4,0,0,0,35.5,9.87Zm-12,7.28,4.6-4.82-2-2L21.2,14.9Zm-8.87,6.22L2.35,35.5l.44.54L15,23.76Zm-1.12-1.08-.3.28L6,29.46Q3.72,31.58,1.5,33.71c-.41.39-.41.61,0,1L13.74,22.53ZM3.66,36.86c.41.38.61.38,1,0L16,24.94a.41.41,0,0,0,0-.09l-.25-.22Zm13.15-13,1.38-1.16-2.53-2.52-1.3,1.23Z"/></g></g></svg>