<svg xmlns="http://www.w3.org/2000/svg" viewBox="0 0 18.36 20.25"><defs><style>.cls-1{fill:#fff;stroke:#000;stroke-miterlimit:10;stroke-width:0.25px;}</style></defs><title>Asset 34</title><g id="Layer_2" data-name="Layer 2"><g id="Layer_1-2" data-name="Layer 1"><path d="M11.47,3.84h0a1,1,0,0,0-1-1h0a1,1,0,0,0,1-1h0a1,1,0,0,0,1,1h0A1,1,0,0,0,11.47,3.84Z"/><path d="M8.24,5.33h0A1.33,1.33,0,0,0,6.92,4h0A1.33,1.33,0,0,0,8.24,2.69h0A1.32,1.32,0,0,0,9.56,4h0A1.33,1.33,0,0,0,8.24,5.33Z"/><path d="M9,1.38H9A.69.69,0,0,0,8.35.69h0A.69.69,0,0,0,9,0H9a.69.69,0,0,0,.69.69h0A.69.69,0,0,0,9,1.38Z"/><path class="cls-1" d="M18.23,15.94V5a21.25,21.25,0,0,0-9,4V20A21.19,21.19,0,0,1,18.23,15.94Z"/><path class="cls-1" d="M.12,15.94V5A21.25,21.25,0,0,1,9.18,9V20A21.19,21.19,0,0,0,.12,15.94Z"/><path d="M9.18,8.31a19.16,19.16,0,0,1,8.06-3.78v-1A23.14,23.14,0,0,0,9.18,7.07V8.31Z"/><path d="M9.18,8.31A19.16,19.16,0,0,0,1.12,4.53v-1A23.14,23.14,0,0,1,9.18,7.07V8.31Z"/></g></g></svg>