<svg xmlns="http://www.w3.org/2000/svg" viewBox="0 0 15.61 29"><title>Asset 31</title><g id="Layer_2" data-name="Layer 2"><g id="Layer_1-2" data-name="Layer 1"><path d="M15.61,10.3H10.52a15.13,15.13,0,0,0-.25-1.5A2.19,2.19,0,0,0,7.48,7.11,1.77,1.77,0,0,0,6.3,8a2.75,2.75,0,0,0,.81,3.57c.73.47,1.55.79,2.32,1.21a33.38,33.38,0,0,1,3.74,2.12c2.2,1.62,2.73,3.94,2.13,6.49s-2.36,3.76-4.73,4.35c-.38.09-.78.14-1.21.21v3H6.92V26C2.58,25.42.13,23.12,0,18.6H5.1a14.17,14.17,0,0,0,.25,1.45,2.7,2.7,0,0,0,3.52,2A2.23,2.23,0,0,0,10,21.18a2.86,2.86,0,0,0-.58-3.59,9.65,9.65,0,0,0-1.56-.89c-1.32-.65-2.71-1.18-4-1.94A5.92,5.92,0,0,1,1,7.83a5.9,5.9,0,0,1,4.42-4.3c.56-.17,1.14-.26,1.76-.39V0H9.65V1.06c0,.57,0,1.13,0,1.7,0,.39.11.51.5.58A6.64,6.64,0,0,1,15.61,10.3Z"/></g></g></svg>