<svg xmlns="http://www.w3.org/2000/svg" viewBox="0 0 25.4 15.8"><defs><style>.cls-1{fill:none;stroke:#000;stroke-miterlimit:10;stroke-width:0.25px;}</style></defs><title>Asset 33</title><g id="Layer_2" data-name="Layer 2"><g id="Layer_1-2" data-name="Layer 1"><path d="M18.83,9.51v.38a.52.52,0,0,0,.52.52h.09L19.77,9h-.42A.52.52,0,0,0,18.83,9.51Z"/><path d="M5.13,10.51l-.08,0-.07,0Z"/><path class="cls-1" d="M23.38,4a.77.77,0,0,1,0,.15v4a.59.59,0,0,1,0,.14,2.15,2.15,0,0,0,0-4.27Z"/><path class="cls-1" d="M19.13,8.14v-4a.8.8,0,0,1,.07-.34C17,3.67,13,3.22,10.32,1.92v.41l0,0V10l0,0v.4c2.62-1.3,6.63-1.75,8.88-1.9A.78.78,0,0,1,19.13,8.14Z"/><path class="cls-1" d="M8.86,6.15v5H9.94v-.5l0,0v-9a.05.05,0,0,1,0,0V1.17H8.86Z"/><path d="M5,1.78l.07.06.08-.05Z"/><path d="M6.59,3.15a5.11,5.11,0,0,0,0,6l.59-.5a4.33,4.33,0,0,1,0-5Z"/><path d="M3.48,6.15A4.35,4.35,0,0,1,5.67,2.37l-.62-.53a5.14,5.14,0,0,0,0,8.62l.62-.53A4.37,4.37,0,0,1,3.48,6.15Z"/><path d="M.78,6.15A6.92,6.92,0,0,1,3.66.53L3.07,0a7.69,7.69,0,0,0,0,12.29l.59-.52A6.94,6.94,0,0,1,.78,6.15Z"/><path class="cls-1" d="M20,9h-.15l-.32,1.39-1.21,5.27h2.52L22.39,9H20Z"/><path class="cls-1" d="M22.5,3.64H20a.53.53,0,0,0-.42.21.55.55,0,0,0-.1.31v4a.51.51,0,0,0,.1.3.61.61,0,0,0,.24.18.52.52,0,0,0,.18,0H22.6a.51.51,0,0,0,.42-.5v-4A.52.52,0,0,0,22.5,3.64Z"/></g></g></svg>