<svg xmlns="http://www.w3.org/2000/svg" viewBox="0 0 16.04 18"><title>Asset 35</title><g id="Layer_2" data-name="Layer 2"><g id="Layer_1-2" data-name="Layer 1"><path d="M13.41,1.49a1.32,1.32,0,1,0,1.32,1.32A1.33,1.33,0,0,0,13.41,1.49Zm0,2.31a1,1,0,0,1,0-2,1,1,0,1,1,0,2Z"/><path d="M13.41.1a2.54,2.54,0,0,0-2.54,2.54V6.13a2.54,2.54,0,1,0,5.07,0V2.64A2.54,2.54,0,0,0,13.41.1Zm2.2,6a2.21,2.21,0,0,1-4.41,0V2.64a2.21,2.21,0,1,1,4.41,0Z"/><path d="M14.42,6.38H14a.17.17,0,0,0,0,.34h.47a.17.17,0,0,0,0-.34Z"/><path d="M14.42,5.06H14a.16.16,0,0,0-.17.16.16.16,0,0,0,.17.17h.47a.16.16,0,0,0,.17-.17A.16.16,0,0,0,14.42,5.06Z"/><path d="M12.87,6.38h-.48a.17.17,0,1,0,0,.34h.48a.17.17,0,0,0,0-.34Z"/><path d="M12.87,5.06h-.48a.17.17,0,0,0-.17.16.17.17,0,0,0,.17.17h.48A.16.16,0,0,0,13,5.22.16.16,0,0,0,12.87,5.06Z"/><path d="M12.87,9.83a.17.17,0,0,0-.16-.12h0a.16.16,0,0,0-.12.2L13,11.61H10.05L9.26,8.66h.92a.17.17,0,0,0,.17-.16.17.17,0,0,0-.17-.17h-1L8.38,5.39H9.6a.17.17,0,0,0,0-.34H8.3L7.54,2.23h2a.18.18,0,0,0,.17-.17.17.17,0,0,0-.17-.16H.88a.78.78,0,0,0-.62.3.78.78,0,0,0-.13.66l3,11.65a.77.77,0,0,0,.75.58H6.05v2.48H3.16a.17.17,0,0,0-.17.16.18.18,0,0,0,.17.17H12.8a.18.18,0,0,0,.17-.17.17.17,0,0,0-.17-.16H11.13V15.09h2.09a.76.76,0,0,0,.61-.29.78.78,0,0,0,.14-.67Zm-2.32,4.93H6.9l-.76-2.82H9.79ZM9.7,11.61H6.05L5.27,8.66H8.92ZM8.83,8.33H5.18L4.39,5.39H8ZM7.2,2.23,8,5.05H4.3L3.55,2.23ZM.45,2.78A.41.41,0,0,1,.53,2.4a.43.43,0,0,1,.35-.17H3.2L4,5.05H1Zm.67,2.61H4.05l.78,2.94h-3ZM2,8.66h3l.79,2.95h-3Zm1.91,6.1a.44.44,0,0,1-.43-.33l-.64-2.49h3l.75,2.82Zm6.93,2.81H6.38V15.09h4.41Zm2.78-3a.44.44,0,0,1-.35.17H10.89l-.75-2.82h2.92l.59,2.27A.47.47,0,0,1,13.57,14.59Z"/><path d="M4.7,8.43H5L4.9,8.18,4.17,5.43l0-.15H1l.06.26.7,2.74,0,.15H4.7ZM1.25,5.49H4L4.7,8.23H2Z"/><path d="M3.83,5.15h.26L4,4.9l-.7-2.62,0-.15H.88a.52.52,0,0,0-.43.21.51.51,0,0,0-.1.46L.91,5l0,.15H3.83ZM.55,2.75a.31.31,0,0,1,.06-.29.34.34,0,0,1,.27-.13H3.13L3.83,5H1.11Z"/><path d="M4.52,5.28H4.26l.07.26.73,2.74,0,.15H9l-.07-.25L8.16,5.43l0-.15H4.52Zm4.18,3H5.26L4.52,5.49H8Z"/><path d="M6.27,11.84H6l.07.25.7,2.62,0,.15h3.86l-.07-.25L9.91,12l0-.15H6.27Zm4.15,2.82H7L6.27,12H9.71Z"/><path d="M4.19,5l0,.15H8.08L8,4.9l-.7-2.62-.05-.15H3.42l.06.25ZM7.12,2.33,7.82,5H4.38l-.7-2.62Z"/><path d="M5.4,8.56H5.14l.06.25.74,2.75,0,.15H9.83l-.06-.26L9,8.71l0-.15H5.4ZM9.57,11.5H6.13L5.4,8.76H8.84Z"/><path d="M13.41,1.72A1.09,1.09,0,1,0,14.5,2.81,1.09,1.09,0,0,0,13.41,1.72Zm0,2a.89.89,0,1,1,.88-.89A.89.89,0,0,1,13.41,3.7Z"/><path d="M13.41,1.39a1.43,1.43,0,1,0,1.42,1.42A1.43,1.43,0,0,0,13.41,1.39Zm0,2.64a1.22,1.22,0,1,1,1.22-1.22A1.22,1.22,0,0,1,13.41,4Z"/><path d="M14.42,5H14a.27.27,0,1,0,0,.53h.47a.27.27,0,1,0,0-.53Zm0,.33H14a.07.07,0,0,1-.07-.07A.07.07,0,0,1,14,5.16h.47a.07.07,0,0,1,.07.06A.07.07,0,0,1,14.42,5.29Z"/><path d="M13.41.33A2.31,2.31,0,0,0,11.1,2.64V6.13a2.31,2.31,0,1,0,4.61,0V2.64A2.31,2.31,0,0,0,13.41.33Zm2.1,5.8a2.11,2.11,0,0,1-4.21,0V2.64a2.11,2.11,0,1,1,4.21,0Z"/><path d="M13.41,0a2.64,2.64,0,0,0-2.64,2.64V6.13a2.64,2.64,0,1,0,5.27,0V2.64A2.64,2.64,0,0,0,13.41,0Zm2.43,6.13a2.44,2.44,0,1,1-4.87,0V2.64a2.44,2.44,0,1,1,4.87,0Z"/><path d="M14.42,6.28H14a.27.27,0,0,0,0,.54h.47a.27.27,0,0,0,0-.54Zm0,.34H14a.07.07,0,1,1,0-.14h.47a.07.07,0,0,1,0,.14Z"/><path d="M6.69,14.86l-.07-.25L5.92,12l0-.15H2.66l.07.25.6,2.37a.55.55,0,0,0,.53.4H6.69Zm-2.83-.2a.33.33,0,0,1-.33-.25L2.92,12h2.8l.7,2.62H3.86Z"/><path d="M6.48,15h-.2v2.68h4.61V15H6.48Zm4.21,2.48H6.48V15.2h4.21Z"/><path d="M12.87,5h-.48a.27.27,0,1,0,0,.53h.48a.27.27,0,0,0,0-.53Zm0,.33h-.48a.07.07,0,0,1-.07-.07.07.07,0,0,1,.07-.06h.48a.06.06,0,0,1,.06.06A.07.07,0,0,1,12.87,5.29Z"/><path d="M13.18,12l0-.15H10l.07.25.7,2.62,0,.15h2.41a.52.52,0,0,0,.43-.21.51.51,0,0,0,.09-.46Zm.31,2.54a.35.35,0,0,1-.27.13H11L10.27,12H13l.56,2.2A.33.33,0,0,1,13.49,14.53Z"/><path d="M5.58,11.71h.26l-.07-.26L5,8.71l0-.15H1.82l.07.25.7,2.74,0,.16h3Zm-3.5-3H4.85l.73,2.74H2.79Z"/><path d="M12.87,6.28h-.48a.27.27,0,0,0,0,.54h.48a.27.27,0,0,0,0-.54Zm0,.34h-.48a.07.07,0,0,1,0-.14h.48a.07.07,0,0,1,0,.14Z"/><path d="M13,9.81a.27.27,0,0,0-.26-.2h-.07a.26.26,0,0,0-.19.32l.4,1.56H10.12L9.39,8.76h.79a.27.27,0,1,0,0-.53H9.25L8.52,5.49H9.6A.27.27,0,1,0,9.6,5H8.37l-.7-2.62H9.52a.27.27,0,1,0,0-.54H.88a.9.9,0,0,0-.7.34A.89.89,0,0,0,0,2.89L3,14.54a.88.88,0,0,0,.85.66H6v2.27H3.16a.27.27,0,1,0,0,.53H12.8a.27.27,0,1,0,0-.53H11.23V15.2h2a.88.88,0,0,0,.85-1.1Zm.78,4.92a.65.65,0,0,1-.53.26H11v2.68H12.8a.07.07,0,0,1,.07.06.07.07,0,0,1-.07.07H3.16a.07.07,0,0,1-.06-.07.06.06,0,0,1,.06-.06h3V15H3.86a.66.66,0,0,1-.65-.5L.22,2.84a.7.7,0,0,1,.12-.58A.67.67,0,0,1,.88,2H9.52a.07.07,0,0,1,.07.06.07.07,0,0,1-.07.07H7.41l.07.25L8.18,5l0,.15H9.6a.07.07,0,0,1,.07.07s0,.06-.07.06H8.25l.07.26.73,2.74,0,.15h1.09a.07.07,0,0,1,.07.07.07.07,0,0,1-.07.06h-1l.07.25.73,2.75,0,.15h3.14L13,11.45l-.4-1.56a.09.09,0,0,1,0-.08h0a.06.06,0,0,1,.06,0l1.1,4.29A.66.66,0,0,1,13.75,14.73Z"/><path d="M4.28,5l0,.07H8l0-.12L7.22,2.3l0-.07H3.55l0,.13ZM7.12,2.33,7.82,5H4.38l-.7-2.62Z"/><path d="M13.41.43A2.21,2.21,0,0,0,11.2,2.64V6.13a2.21,2.21,0,0,0,4.41,0V2.64A2.21,2.21,0,0,0,13.41.43Zm2.1,5.7a2.11,2.11,0,0,1-4.21,0V2.64a2.11,2.11,0,1,1,4.21,0Z"/><path d="M12.87,5h-.48a.27.27,0,1,0,0,.53h.48a.27.27,0,0,0,0-.53Zm0,.43h-.48a.17.17,0,0,1-.17-.17.17.17,0,0,1,.17-.16h.48a.16.16,0,0,1,.16.16A.16.16,0,0,1,12.87,5.39Z"/><path d="M4.39,5.39l0,.12.73,2.74,0,.08H8.83l0-.13L8.06,5.46l0-.07H4.39ZM8.7,8.23H5.26L4.52,5.49H8Z"/><path d="M6.14,11.94l0,.12.7,2.63,0,.07h3.65l0-.12L9.81,12l0-.07H6.14Zm4.28,2.72H7L6.27,12H9.71Z"/><path d="M5.27,8.66l0,.13L6,11.53l0,.08H9.7l0-.13L8.94,8.74l0-.08H5.27Zm4.3,2.84H6.13L5.4,8.76H8.84Z"/><path d="M13.41,0a2.64,2.64,0,0,0-2.64,2.64V6.13a2.64,2.64,0,1,0,5.27,0V2.64A2.64,2.64,0,0,0,13.41,0Zm2.53,6.13a2.54,2.54,0,1,1-5.07,0V2.64a2.54,2.54,0,1,1,5.07,0Z"/><path d="M13.41,1.39a1.43,1.43,0,1,0,1.42,1.42A1.43,1.43,0,0,0,13.41,1.39Zm0,2.74a1.32,1.32,0,1,1,1.32-1.32A1.33,1.33,0,0,1,13.41,4.13Z"/><path d="M4,5.05l0-.12L3.22,2.3l0-.07H.88a.43.43,0,0,0-.35.17.41.41,0,0,0-.08.38L1,5l0,.07H4ZM.55,2.75a.31.31,0,0,1,.06-.29.34.34,0,0,1,.27-.13H3.13L3.83,5H1.11Z"/><path d="M13,9.81a.27.27,0,0,0-.26-.2h-.07a.26.26,0,0,0-.19.32l.4,1.56H10.12L9.39,8.76h.79a.27.27,0,1,0,0-.53H9.25L8.52,5.49H9.6A.27.27,0,1,0,9.6,5H8.37l-.7-2.62H9.52a.27.27,0,1,0,0-.54H.88a.9.9,0,0,0-.7.34A.89.89,0,0,0,0,2.89L3,14.54a.88.88,0,0,0,.85.66H6v2.27H3.16a.27.27,0,1,0,0,.53H12.8a.27.27,0,1,0,0-.53H11.23V15.2h2a.88.88,0,0,0,.85-1.1Zm.86,5a.76.76,0,0,1-.61.29H11.13v2.48H12.8a.17.17,0,0,1,.17.16.18.18,0,0,1-.17.17H3.16A.18.18,0,0,1,3,17.73a.17.17,0,0,1,.17-.16H6.05V15.09H3.86a.77.77,0,0,1-.75-.58L.13,2.86A.78.78,0,0,1,.26,2.2a.78.78,0,0,1,.62-.3H9.52a.17.17,0,0,1,.17.16.18.18,0,0,1-.17.17h-2l0,.13L8.28,5l0,.07H9.6a.17.17,0,0,1,0,.34H8.38l0,.12.73,2.74,0,.08h1a.17.17,0,0,1,.17.17.17.17,0,0,1-.17.16H9.26l0,.13L10,11.53l0,.08H13l0-.13-.4-1.56a.16.16,0,0,1,.12-.2h0a.17.17,0,0,1,.16.12l1.1,4.3A.78.78,0,0,1,13.83,14.8Z"/><path d="M14.42,5H14a.27.27,0,1,0,0,.53h.47a.27.27,0,1,0,0-.53Zm0,.43H14a.16.16,0,0,1-.17-.17A.16.16,0,0,1,14,5.06h.47a.16.16,0,0,1,.17.16A.16.16,0,0,1,14.42,5.39Z"/><path d="M13.08,12l0-.07H10.14l0,.12.7,2.63,0,.07h2.33a.44.44,0,0,0,.35-.17.47.47,0,0,0,.08-.38Zm.41,2.52a.35.35,0,0,1-.27.13H11L10.27,12H13l.56,2.2A.33.33,0,0,1,13.49,14.53Z"/><path d="M14.42,6.28H14a.27.27,0,0,0,0,.54h.47a.27.27,0,0,0,0-.54Zm0,.44H14a.17.17,0,0,1,0-.34h.47a.17.17,0,0,1,0,.34Z"/><path d="M12.87,6.28h-.48a.27.27,0,0,0,0,.54h.48a.27.27,0,0,0,0-.54Zm0,.44h-.48a.17.17,0,1,1,0-.34h.48a.17.17,0,0,1,0,.34Z"/><path d="M4.83,8.33l0-.13L4.07,5.46l0-.07H1.12l0,.12.7,2.74,0,.08h3ZM1.25,5.49H4L4.7,8.23H2Z"/><path d="M5.71,11.61l0-.13L4.94,8.74l0-.08H2l0,.13.7,2.74,0,.08h3ZM2.08,8.76H4.85l.73,2.74H2.79Z"/><path d="M13.41,1.82a1,1,0,1,0,1,1A1,1,0,0,0,13.41,1.82Zm0,1.88a.89.89,0,1,1,.88-.89A.89.89,0,0,1,13.41,3.7Z"/><path d="M6.55,14.76l0-.12L5.82,12l0-.07h-3l0,.12.6,2.37a.44.44,0,0,0,.43.33H6.55Zm-2.69-.1a.33.33,0,0,1-.33-.25L2.92,12h2.8l.7,2.62H3.86Z"/><path d="M6.48,15.09h-.1v2.48h4.41V15.09H6.48Zm4.21,2.38H6.48V15.2h4.21Z"/></g></g></svg>