<svg id="Layer_2" enable-background="new 0 0 512 512" height="512" viewBox="0 0 512 512" width="512" xmlns="http://www.w3.org/2000/svg"><path d="m511.99 408.74c.39 9.03-13.73 9.82-14.12.39-1.18-25.13-36.88-31.41-44.33-5.1-1.18 3.53-5.1 5.5-8.63 4.71-10.99-3.14-21.19.79-17.66 12.56 1.57 5.5-3.53 10.6-8.63 9.03-23.15-7.85-28.64-44.37-29.82-65.18h-18.05c-.78 14.13-5.1 57.33-29.43 65.18-5.49 1.57-10.59-3.14-9.02-9.03 3.92-11.78-7.06-15.71-17.26-12.56-3.53.79-7.45-1.18-8.63-4.71-7.85-26.31-43.55-20.02-44.73 5.1 0 9.42-14.12 8.64-13.73-.39 1.57-38.48 52.96-49.47 69.44-15.71 12.16-1.96 24.32 5.1 28.25 16.88 8.63-11.78 10.59-34.94 11.38-44.76h-16.48c-3.53 0-7.06-3.14-7.06-7.07v-2.75h-40.8c-3.92 0-7.06-3.14-7.06-7.07v-26.7c0-16.49 3.92-21.59 16.48-32.2 9.02-7.85 16.09-14.13 23.15-23.95 4.71-7.46 7.45-12.56 8.24-21.2v-35.34c0-20.42 41.19-63.61 41.19-63.61 3.14-3.14 7.45-2.75 10.2 0 1.96 1.96 41.19 43.58 41.19 63.61v35.34c.78 8.64 3.92 13.74 8.63 21.2 5.1 7.46 12.55 15.71 21.97 23.17 12.95 10.99 17.26 15.71 17.26 32.98v26.7c0 3.93-3.14 7.07-7.06 7.07h-40.8v2.75c0 3.93-3.14 7.07-7.06 7.07h-16.09c.39 9.82 2.75 32.98 10.99 44.76 3.92-11.78 16.48-18.85 28.64-16.88 16.48-33.77 67.87-22.77 69.44 15.71zm-148.69-142.53c-8.63 0-8.63-13.35 0-13.35h33.35c8.63 0 8.63 13.35 0 13.35zm-29.82 74.99v-64c-6.67 9.42-13.73 15.31-22.36 22.77-9.02 7.85-11.38 9.42-11.38 21.59v19.63h33.74zm92.59-64v64h33.74v-19.63c0-12.56-2.75-14.13-11.77-21.99-9.02-7.06-16.48-14.92-21.97-22.38zm-14.12-68.32c0-11.39-21.97-37.3-32.17-48.29-10.2 10.99-32.17 36.91-32.17 48.29v142.13h64.34zm-317.79 126.83c-8.63 0-8.63-13.35 0-13.35h123.58c9.02 0 9.02 13.35 0 13.35zm0 73.03c-8.63 0-8.63-13.35 0-13.35h119.27c9.02 0 9.02 13.35 0 13.35zm0-146.07c-8.63 0-8.63-13.35 0-13.35h165.17c8.63 0 8.63 13.35 0 13.35zm30.6-249.32v69.89c0 22.77-18.44 41.23-41.19 41.23h-70.23v346.31c0 15.31 12.55 27.88 27.86 27.88h304.45c15.69 0 27.86-12.56 27.86-27.88 0-8.64 13.34-8.64 13.34 0 0 22.77-18.44 41.23-41.19 41.23h-304.47c-22.75-.01-41.19-18.46-41.19-41.24v-352.59c0-1.96.78-3.53 2.35-5.1l111.03-111.12c1.18-.79 2.75-1.96 4.71-1.96h227.55c22.76 0 41.19 18.85 41.19 41.23v69.5c0 8.64-13.34 8.64-13.34 0v-69.5c0-15.31-12.55-27.88-27.86-27.88h-220.87zm-101.61 97.77h60.42c15.3 0 27.86-12.56 27.86-27.88v-60.47z" fill="rgb(0,0,0)"/></svg>