<svg xmlns="http://www.w3.org/2000/svg" viewBox="0 0 30.85 37.69"><title>Asset 36</title><g id="Layer_2" data-name="Layer 2"><g id="Layer_1-2" data-name="Layer 1"><path d="M3.36,37.69a1.44,1.44,0,0,1-.3-.36c-.18-.39.11-.75.61-.75H8.94V35.1c0-.57.18-.74.76-.74h4V31.22H.91c-.75,0-.83-.13-.88-.88a19.62,19.62,0,0,1,.76-5.55C1.5,21.34,2.24,17.89,3,14.43c.12-.53.25-.64.81-.64H26.9c.81,0,.88.06,1,.86.95,4.49,1.92,9,2.81,13.49a12.53,12.53,0,0,1,.06,2.6.47.47,0,0,1-.48.47H17.13v3.14h4c.63,0,.79.16.79.77v1.45h5.24c.29,0,.54.06.65.36a.54.54,0,0,1-.26.69s0,0,0,.06Zm-2.2-7.6H29.69V29H6.4c-.5,0-.76-.19-.76-.55s.26-.56.75-.56H10l.25-3.57H2l-.75,3.57h2.4c.41,0,.65.21.66.55s-.24.55-.67.56H1.16Zm18.37-5.76h-8.2l-.25,3.54h8.7Zm1.12,0,.25,3.56h8.69l-.75-3.56Zm-1.2-1.14-.25-3.55H11.66l-.25,3.55Zm-17.18,0h8l.24-3.49c-.06,0-.08-.05-.1-.05H3.23a.35.35,0,0,0-.25.22C2.74,20.93,2.51,22,2.27,23.15Zm18.3,0h8c-.22-1.09-.45-2.14-.66-3.2-.05-.3-.19-.37-.48-.37H20.32ZM12,14.93l-.25,3.53h7.38l-.25-3.53Zm-1.11,0c-2.26,0-4.47,0-6.67,0-.09,0-.23.16-.25.26-.17.73-.32,1.46-.47,2.19-.08.36-.15.71-.23,1.09h7.37Zm9.36,3.56h7.34a1.66,1.66,0,0,0,0-.24c-.2-1-.43-1.93-.61-2.91-.06-.31-.16-.42-.49-.41H20.39l-.4,0Zm.55,17H10.08v1.07H20.79Zm-5.9-4.25v3.09H16V31.24Z"/><path d="M15.44,8.52a2.82,2.82,0,0,1-2.79-2.79,2.79,2.79,0,0,1,5.57,0A2.83,2.83,0,0,1,15.44,8.52Zm0-4.45a1.68,1.68,0,0,0-1.68,1.65,1.67,1.67,0,1,0,3.34,0A1.68,1.68,0,0,0,15.44,4.07Z"/><path d="M14.86.86c0-.14,0-.35.07-.47A.9.9,0,0,1,15.44,0,.43.43,0,0,1,16,.42a6,6,0,0,1,0,1,.49.49,0,0,1-.53.45.5.5,0,0,1-.53-.46C14.88,1.21,14.88,1.05,14.86.86Z"/><path d="M16,10.58A3.59,3.59,0,0,1,16,11a.54.54,0,0,1-1.06,0,6.46,6.46,0,0,1,0-.88.5.5,0,0,1,.54-.49.52.52,0,0,1,.53.5C16,10.28,16,10.41,16,10.58Z"/><path d="M11.63,1.52c.47,0,1.24.72,1.19,1.07a.71.71,0,0,1-.29.46A.68.68,0,0,1,12,3a2.84,2.84,0,0,1-.67-.67.67.67,0,0,1,0-.54C11.36,1.67,11.56,1.58,11.63,1.52Z"/><path d="M19.65,1.94c0,.47-.74,1.24-1.08,1.18a.63.63,0,0,1-.45-.3.58.58,0,0,1,0-.53,2.63,2.63,0,0,1,.66-.67.64.64,0,0,1,.54,0C19.5,1.66,19.59,1.87,19.65,1.94Z"/><path d="M10.6,6.3a3.27,3.27,0,0,1-.45,0A.49.49,0,0,1,9.7,5.7a.49.49,0,0,1,.49-.5,5.89,5.89,0,0,1,.84,0,.5.5,0,0,1,.49.5.5.5,0,0,1-.46.56A3.57,3.57,0,0,1,10.6,6.3Z"/><path d="M20.31,5.18c.12,0,.31,0,.43,0a1,1,0,0,1,.42.48.43.43,0,0,1-.37.54,3.87,3.87,0,0,1-1,0,.48.48,0,0,1-.43-.55.51.51,0,0,1,.49-.5A3.62,3.62,0,0,1,20.31,5.18Z"/><path d="M11.65,10c-.07,0-.28-.14-.35-.28a.63.63,0,0,1,0-.54A2.52,2.52,0,0,1,12,8.44a.58.58,0,0,1,.53,0,.7.7,0,0,1,.28.47C12.86,9.23,12.1,9.94,11.65,10Z"/><path d="M18.52,8.29a1.45,1.45,0,0,1,.39.17,5.11,5.11,0,0,1,.62.61.51.51,0,0,1-.05.73.49.49,0,0,1-.7,0,2.56,2.56,0,0,1-.61-.62.67.67,0,0,1-.05-.57C18.17,8.49,18.39,8.4,18.52,8.29Z"/></g></g></svg>