<svg xmlns="http://www.w3.org/2000/svg" viewBox="0 0 36.08 36.09"><title>Asset 32</title><g id="Layer_2" data-name="Layer 2"><g id="Layer_1-2" data-name="Layer 1"><path d="M0,17.83a1,1,0,0,1,1-.5c4.06,0,8.13,0,12.19,0,.63,0,.79.12,1,.73l4.08,12.25c.24.71-.05,1.12-.8,1.12H12v3.24h3.4a.71.71,0,1,1,0,1.41H2.9a.71.71,0,0,1-.78-.72.72.72,0,0,1,.78-.69H6.33V31.44H5.11c-.54,0-.72-.13-.9-.65Q2.18,24.7.15,18.61A3.68,3.68,0,0,0,0,18.26ZM10.56,34.67V31.46H7.78v3.21ZM5.37,21.57c-.31-.92-.6-1.8-.91-2.69a.25.25,0,0,0-.2-.12H1.68c.31.92.6,1.81.91,2.69a.29.29,0,0,0,.2.13Zm3.29-2.8H5.92l.93,2.78H9.59Zm4.23,0H10.15l.93,2.77h2.74Zm-6.12,7c-.3-.92-.59-1.8-.9-2.69a.25.25,0,0,0-.2-.12H3.09c.31.92.6,1.8.91,2.69a.25.25,0,0,0,.2.12ZM7.33,23l.93,2.79H11L10.07,23Zm5.16,2.79h2.74L14.3,23H11.56Zm-8,1.43c.31.92.6,1.8.91,2.69a.25.25,0,0,0,.2.12H8.18c-.3-.92-.59-1.8-.9-2.69a.25.25,0,0,0-.2-.12ZM12.41,30l-.93-2.78H8.74L9.67,30Zm4.23,0c-.3-.92-.59-1.8-.9-2.68a.24.24,0,0,0-.2-.13H13c.31.92.6,1.8.91,2.69a.25.25,0,0,0,.2.12Z"/><path d="M28.83,0a.92.92,0,0,1,.5,1c0,.39,0,.79,0,1.2a5.1,5.1,0,0,1,3,1.67.34.34,0,0,0,.31,0c.36-.18.69-.4,1-.59a.7.7,0,0,1,1,.25.69.69,0,0,1-.3,1c-.4.25-.8.48-1.22.72a5,5,0,0,1,0,3.66c.41.24.83.47,1.24.72a.71.71,0,0,1,.19,1.09.68.68,0,0,1-.9.12c-.35-.19-.69-.4-1-.58a.37.37,0,0,0-.34,0,5.16,5.16,0,0,1-3,1.66c0,.44,0,.88,0,1.33s-.28.83-.7.83-.7-.33-.7-.84,0-.87,0-1.32a5.06,5.06,0,0,1-2.69-1.31c-.53-.5-.53-.5-1.18-.13a5.7,5.7,0,0,1-.58.33.7.7,0,0,1-.95-.26.69.69,0,0,1,.25-1c.4-.25.83-.48,1.26-.74a5,5,0,0,1,0-3.66l-1.25-.73a.68.68,0,0,1-.35-.72.63.63,0,0,1,.51-.56,1,1,0,0,1,.6.11c.35.16.67.38,1,.56a.34.34,0,0,0,.31,0,5.09,5.09,0,0,1,3.05-1.67c0-.41,0-.81,0-1.2a.92.92,0,0,1,.5-1Zm3.31,7.08a3.52,3.52,0,1,0-3.54,3.49A3.51,3.51,0,0,0,32.14,7.08Z"/><path d="M29.76,31.44v3.24h3.38c.51,0,.83.27.84.7s-.32.71-.83.71H20.71c-.51,0-.83-.28-.83-.71s.33-.7.84-.7h3.37V31.44H22.81a.72.72,0,0,1-.81-.58q-2.09-6.24-4.16-12.48c-.21-.62.1-1,.77-1H31a.74.74,0,0,1,.85.62q2.07,6.2,4.13,12.38c.23.69-.07,1.1-.8,1.1Zm-1.45,3.23v-3.2H25.54v3.2ZM20.38,21.55h2.74l-.92-2.77H19.46Zm7,0-.93-2.78H23.68l.93,2.78Zm4.24,0-.93-2.79H27.92c.29.88.57,1.74.86,2.59a.33.33,0,0,0,.23.19C29.86,21.58,30.7,21.57,31.59,21.57ZM20.86,23c.3.92.6,1.8.9,2.69a.25.25,0,0,0,.2.12h2.58c-.31-.92-.6-1.8-.9-2.68a.3.3,0,0,0-.21-.13Zm7.91,2.81L27.84,23H25.1L26,25.79ZM32.07,23H29.33l.92,2.77H33Zm-9.8,4.2c.3.92.6,1.8.9,2.69a.27.27,0,0,0,.21.12H26l-.9-2.69a.28.28,0,0,0-.21-.12Zm4.23,0L27.43,30h2.74l-.93-2.79ZM31.66,30H34.4l-.92-2.78H30.74Z"/><path d="M6.31,13a.73.73,0,0,1-.79-.56.7.7,0,0,1,.48-.8l2.34-.88L19.62,6.5l.3-.11a.7.7,0,0,1,.5,1.31c-.27.12-.54.21-.82.32L6.67,12.86Z"/><path d="M14.52,5a.76.76,0,0,1-.6.65L9.92,7l-2.1.7a.72.72,0,0,1-1-.44c-.12-.39.1-.74.57-.9l6.13-2A.72.72,0,0,1,14.52,5Z"/><path d="M16,14.11a.74.74,0,0,1-.73-.5.66.66,0,0,1,.22-.76,1.16,1.16,0,0,1,.24-.14q2-1,4-2a1.14,1.14,0,0,1,.6-.1.62.62,0,0,1,.52.55.65.65,0,0,1-.31.7,8.89,8.89,0,0,1-.81.42c-1.1.55-2.2,1.11-3.3,1.65C16.27,14,16.1,14.06,16,14.11Z"/><path d="M3.23,12.69a.7.7,0,0,1,.71.67.71.71,0,0,1-.68.74.71.71,0,0,1,0-1.41Z"/></g></g></svg>