<svg xmlns="http://www.w3.org/2000/svg" viewBox="0 0 33.71 43"><defs><style>.cls-1{fill:#fff;}</style></defs><title>Asset 35</title><g id="Layer_2" data-name="Layer 2"><g id="Layer_1-2" data-name="Layer 1"><path class="cls-1" d="M16.83,43a37.52,37.52,0,0,1-11.2-1.56,22,22,0,0,1-3.48-1.53A3.84,3.84,0,0,1,.07,35.52a12.13,12.13,0,0,1,9.5-10.24,1,1,0,0,1,.87.15,10.32,10.32,0,0,0,5.61,1.87,11.12,11.12,0,0,0,7.4-2,.77.77,0,0,1,.52-.07,12,12,0,0,1,9.57,9.94c.06.38.08.77.13,1.16a3,3,0,0,1-1.17,2.88,11.07,11.07,0,0,1-3.57,1.94,32.47,32.47,0,0,1-8.56,1.67C19.19,42.93,18,43,16.83,43Z"/><path class="cls-1" d="M17.75,25A7.12,7.12,0,0,1,14,24.48c-4.33-1.83-7.54-7.9-5.5-13a9,9,0,0,1,17.32,2.06,10.26,10.26,0,0,1-1.57,6.84.78.78,0,0,1-.38.29,8.26,8.26,0,0,1-.86.2,1.25,1.25,0,0,1-1-.14,6.48,6.48,0,0,0-4.13,0,2.43,2.43,0,0,0-.51,3.91C17.43,24.76,17.56,24.85,17.75,25Z"/><path class="cls-1" d="M27.14,20.36c0-1.84,0-3.69,0-5.53a2,2,0,0,1,1-1.63.5.5,0,0,0,.25-.53,11.55,11.55,0,0,0-22.94-.61c0,.14,0,.28,0,.42a.7.7,0,0,0,.33.81,2,2,0,0,1,.88,1.76c0,1.49,0,3,0,4.48a2.23,2.23,0,0,1-2.25,2.25A2.23,2.23,0,0,1,2,19.58c0-1.52,0-3,0-4.57a2.1,2.1,0,0,1,1-1.81.71.71,0,0,0,.34-.6A13.37,13.37,0,0,1,10.33,1.69a13.62,13.62,0,0,1,20,9.74c0,.2.07.4.08.6A1.58,1.58,0,0,0,31,13.44a1.93,1.93,0,0,1,.71,1.7c0,1.43,0,2.86,0,4.29a2.31,2.31,0,0,1-3.3,2.15.69.69,0,0,0-.53,0,12.42,12.42,0,0,1-5.5,1.86,2.17,2.17,0,0,0-.6.28,3.73,3.73,0,0,1-1,.46,12.14,12.14,0,0,1-1.81,0,1.31,1.31,0,0,1-1.32-1.3,1.29,1.29,0,0,1,1.25-1.36c.66,0,1.33,0,2,0a1,1,0,0,1,.63.24,1.09,1.09,0,0,0,1.13.27,11.5,11.5,0,0,0,4-1.32c.2-.11.39-.24.58-.37Z"/></g></g></svg>